<svg xmlns="http://www.w3.org/2000/svg" width="1330" height="331" style="
        width:1330px;
        height:331px;
        background: transparent;
        fill: none;
">
        
        <svg xmlns="http://www.w3.org/2000/svg"><g class="shapes-region" style="stroke: black; fill: none;"><g class="composite-shape"><path class="real" d=" M411.11,89.43 L523.09,89.43 L523.09,191.94 L411.11,191.94 Z" style="stroke-width: 1; stroke: rgb(74, 74, 74); fill: rgb(74, 144, 226);"/></g><g class="composite-shape"><path class="real" d=" M431.11,109.43 L543.09,109.43 L543.09,211.94 L431.11,211.94 Z" style="stroke-width: 1; stroke: rgb(74, 74, 74); fill: rgb(74, 144, 226);"/></g><g class="composite-shape"><path class="real" d=" M451.11,129.43 L563.09,129.43 L563.09,231.94 L451.11,231.94 Z" style="stroke-width: 1; stroke: rgb(74, 74, 74); fill: rgb(74, 144, 226);"/></g><g class="composite-shape"><path class="real" d=" M471.11,149.43 L583.09,149.43 L583.09,251.94 L471.11,251.94 Z" style="stroke-width: 1; stroke: rgb(74, 74, 74); fill: rgb(74, 144, 226);"/></g><g class="composite-shape"><path class="real" d=" M33.78,119.78 L150.78,119.78 L150.78,236.78 L33.78,236.78 Z" style="stroke-width: 2; stroke: none; fill: none;"/><path class="real" d=" M42.78,119.78 L42.78,236.78 M51.78,119.78 L51.78,236.78 M60.78,119.78 L60.78,236.78 M69.78,119.78 L69.78,236.78 M78.78,119.78 L78.78,236.78 M87.78,119.78 L87.78,236.78 M96.78,119.78 L96.78,236.78 M105.78,119.78 L105.78,236.78 M114.78,119.78 L114.78,236.78 M123.78,119.78 L123.78,236.78 M132.78,119.78 L132.78,236.78 M141.78,119.78 L141.78,236.78" style="stroke-width: 2; stroke: rgb(128, 128, 128); fill: none;"/><path class="real" d=" M33.78,128.78 L150.78,128.78 M33.78,137.78 L150.78,137.78 M33.78,146.78 L150.78,146.78 M33.78,155.78 L150.78,155.78 M33.78,164.78 L150.78,164.78 M33.78,173.78 L150.78,173.78 M33.78,182.78 L150.78,182.78 M33.78,191.78 L150.78,191.78 M33.78,200.78 L150.78,200.78 M33.78,209.78 L150.78,209.78 M33.78,218.78 L150.78,218.78 M33.78,227.78 L150.78,227.78" style="stroke-width: 2; stroke: rgb(128, 128, 128); fill: none;"/><path class="real" d=" M33.78,119.78 L150.78,119.78 L150.78,236.78 L33.78,236.78 Z" style="stroke-width: 2; stroke: rgb(128, 128, 128); fill: none;"/></g><g class="composite-shape"><path class="real" d=" M78.78,209.78 L87.78,209.78 L87.78,218.78 L78.78,218.78 Z" style="stroke-width: 2; stroke: rgba(126, 211, 33, 0.6); fill: rgba(126, 211, 33, 0.5);"/></g><g class="composite-shape"><path class="real" d=" M187.45,87.83 L307.28,87.83 L307.94,172.11 L188.11,172.11 Z" style="stroke-width: 1; stroke: rgb(74, 74, 74); fill: rgb(74, 144, 226);"/></g><g class="composite-shape"><path class="real" d=" M195.09,96.17 L314.93,96.17 L315.59,180.45 L195.76,180.45 Z" style="stroke-width: 1; stroke: rgb(74, 74, 74); fill: rgb(74, 144, 226);"/></g><g class="composite-shape"><path class="real" d=" M203.96,104.87 L323.79,104.87 L324.45,189.15 L204.62,189.15 Z" style="stroke-width: 1; stroke: rgb(74, 74, 74); fill: rgb(74, 144, 226);"/></g><g class="composite-shape"><path class="real" d=" M211.99,113.14 L331.82,113.14 L332.48,197.42 L212.65,197.42 Z" style="stroke-width: 1; stroke: rgb(74, 74, 74); fill: rgb(74, 144, 226);"/></g><g class="composite-shape"><path class="real" d=" M220.85,121.93 L340.68,121.93 L341.34,206.21 L221.51,206.21 Z" style="stroke-width: 1; stroke: rgb(74, 74, 74); fill: rgb(74, 144, 226);"/></g><g class="composite-shape"><path class="real" d=" M229.86,130.77 L349.69,130.77 L350.35,215.05 L230.52,215.05 Z" style="stroke-width: 1; stroke: rgb(74, 74, 74); fill: rgb(74, 144, 226);"/></g><g class="composite-shape"><path class="real" d=" M237.73,139.5 L357.56,139.5 L358.22,223.78 L238.39,223.78 Z" style="stroke-width: 1; stroke: rgb(74, 74, 74); fill: rgb(74, 144, 226);"/></g><g class="arrow-line"><path class="connection real" stroke-dasharray="" d="  M87.78,209.78 L54.83,262.24" style="stroke: rgb(128, 128, 128); stroke-width: 1; fill: none;"/></g><g class="composite-shape"><path class="real" d=" M20.54,262.49 L54.83,262.49 L54.83,296.78 L20.54,296.78 Z" style="stroke-width: 1; stroke: rgb(126, 211, 33); fill: rgba(126, 211, 33, 0.5);"/></g><g class="arrow-line"><path class="connection real" stroke-dasharray="" d="  M35.83,293.54 L44.45,301.01" style="stroke: rgb(128, 128, 128); stroke-width: 1; fill: none;"/><g stroke="none" fill="rgba(128,128,128,1)" transform="matrix(-0.7557391838264477,-0.654872725061393,0.654872725061393,-0.7557391838264477,45.963348758200596,302.3183006535948)" style="stroke: none; fill: rgb(128, 128, 128); stroke-width: 1;"><path d=" M10.72,-5.15 L0,0 L10.72,5.15 L7.12,0 Z"/></g></g><g class="arrow-line"><path class="connection real" stroke-dasharray="" d="  M49.93,282.44 L59.32,275.62" style="stroke: rgb(128, 128, 128); stroke-width: 1; fill: none;"/><g stroke="none" fill="rgba(128,128,128,1)" transform="matrix(-0.8087091198522965,0.5882087720084799,-0.5882087720084799,-0.8087091198522965,60.933140424867275,274.4388888888889)" style="stroke: none; fill: rgb(128, 128, 128); stroke-width: 1;"><path d=" M10.72,-5.15 L0,0 L10.72,5.15 L7.12,0 Z"/></g></g><g class="arrow-line"><path class="connection real" stroke-dasharray="" d="  M39.83,266.04 L33.59,256.48" style="stroke: rgb(128, 128, 128); stroke-width: 1; fill: none;"/><g stroke="none" fill="rgba(128,128,128,1)" transform="matrix(0.5471250196837962,0.8370509021774037,-0.8370509021774037,0.5471250196837962,32.49147375820061,254.80729274165813)" style="stroke: none; fill: rgb(128, 128, 128); stroke-width: 1;"><path d=" M10.72,-5.15 L0,0 L10.72,5.15 L7.12,0 Z"/></g></g><g class="arrow-line"><path class="connection real" stroke-dasharray="" d="  M25.03,277.64 L14.76,283.43" style="stroke: rgb(128, 128, 128); stroke-width: 1; fill: none;"/><g stroke="none" fill="rgba(128,128,128,1)" transform="matrix(0.8709566551035007,-0.49135985278706035,0.49135985278706035,0.8709566551035007,13.022723758200584,284.4141726866186)" style="stroke: none; fill: rgb(128, 128, 128); stroke-width: 1;"><path d=" M10.72,-5.15 L0,0 L10.72,5.15 L7.12,0 Z"/></g></g><g class="arrow-line"><path class="connection real" stroke-dasharray="" d="  M87.78,218.78 L54.83,296.53" style="stroke: rgb(128, 128, 128); stroke-width: 1; fill: none;"/></g><g class="arrow-line"><path class="connection real" stroke-dasharray="" d="  M78.78,209.78 L20.54,262.24" style="stroke: rgb(128, 128, 128); stroke-width: 1; fill: none;"/></g><g class="arrow-line"><path class="connection real" stroke-dasharray="" d="  M78.78,218.78 L20.54,296.78" style="stroke: rgb(128, 128, 128); stroke-width: 1; fill: none;"/></g><g class="composite-shape"><path class="real" d=" M132.78,173.78 L150.78,173.78 L150.78,191.78 L132.78,191.78 Z" style="stroke-width: 3; stroke: rgba(208, 2, 27, 0.75); fill: rgba(208, 2, 27, 0.75);"/></g><g class="composite-shape"><path class="real" d=" M246.53,149.04 L366.36,149.04 L367.02,233.32 L247.19,233.32 Z" style="stroke-width: 1; stroke: rgb(74, 74, 74); fill: rgb(74, 144, 226);"/></g><g class="composite-shape"><path class="real" d=" M255.73,158.17 L375.56,158.17 L376.22,242.45 L256.39,242.45 Z" style="stroke-width: 1; stroke: rgb(74, 74, 74); fill: rgb(74, 144, 226);"/></g><g class="composite-shape"><path class="real" d=" M264.13,166.64 L383.96,166.64 L384.62,250.92 L264.79,250.92 Z" style="stroke-width: 1; stroke: rgb(74, 74, 74); fill: rgb(74, 144, 226);"/></g><g class="arrow-line"><path class="connection real" stroke-dasharray="7.5 6" d="  M356.22,182.78 L518,233" style="stroke: rgb(74, 74, 74); stroke-width: 2; fill: none;"/></g><g class="arrow-line"><path class="connection real" stroke-dasharray="7.5 6" d="  M150.78,173.78 L282.5,216" style="stroke: rgb(74, 74, 74); stroke-width: 2; fill: none;"/></g><g class="arrow-line"><path class="connection real" stroke-dasharray="7.5 6" d="  M150.78,191.78 L282.5,216" style="stroke: rgb(74, 74, 74); stroke-width: 2; fill: none;"/></g><g class="composite-shape"><path class="real" d=" M338.22,182.78 L356.22,182.78 L356.22,200.78 L338.22,200.78 Z" style="stroke-width: 3; stroke: rgba(208, 2, 27, 0.75); fill: rgba(208, 2, 27, 0.75);"/></g><g class="arrow-line"><path class="connection real" stroke-dasharray="7.5 6" d="  M356.22,200.78 L518,233" style="stroke: rgb(74, 74, 74); stroke-width: 2; fill: none;"/></g><g class="composite-shape"><path class="real" d=" M519.61,178.07 L550.25,178.07 L550.25,206.18 L519.61,206.18 Z" style="stroke-width: 3; stroke: rgba(208, 2, 27, 0.75); fill: rgba(208, 2, 27, 0.75);"/></g><g class="composite-shape"><path class="real" d=" M732.86,36.17 L771.17,36.17 L771.17,73.08 L732.86,73.08 Z" style="stroke-width: 1; stroke: rgb(74, 74, 74); fill: rgb(74, 144, 226);"/></g><g class="composite-shape"><path class="real" d=" M736.47,39.65 L774.78,39.65 L774.78,76.56 L736.47,76.56 Z" style="stroke-width: 1; stroke: rgb(74, 74, 74); fill: rgb(74, 144, 226);"/></g><g class="composite-shape"><path class="real" d=" M740.08,43.12 L778.39,43.12 L778.39,80.04 L740.08,80.04 Z" style="stroke-width: 1; stroke: rgb(74, 74, 74); fill: rgb(74, 144, 226);"/></g><g class="composite-shape"><path class="real" d=" M743.05,46.29 L781.36,46.29 L781.36,83.21 L743.05,83.21 Z" style="stroke-width: 1; stroke: rgb(74, 74, 74); fill: rgb(74, 144, 226);"/></g><g class="composite-shape"><path class="real" d=" M746.02,49.77 L784.33,49.77 L784.33,86.69 L746.02,86.69 Z" style="stroke-width: 1; stroke: rgb(74, 74, 74); fill: rgb(74, 144, 226);"/></g><g class="composite-shape"><path class="real" d=" M749.63,53.25 L787.94,53.25 L787.94,90.17 L749.63,90.17 Z" style="stroke-width: 1; stroke: rgb(74, 74, 74); fill: rgb(74, 144, 226);"/></g><g class="composite-shape"><path class="real" d=" M753.24,56.73 L791.55,56.73 L791.55,93.65 L753.24,93.65 Z" style="stroke-width: 1; stroke: rgb(74, 74, 74); fill: rgb(74, 144, 226);"/></g><g class="composite-shape"><path class="real" d=" M756.85,60.52 L795.16,60.52 L795.16,97.43 L756.85,97.43 Z" style="stroke-width: 1; stroke: rgb(74, 74, 74); fill: rgb(74, 144, 226);"/></g><g class="composite-shape"><path class="real" d=" M759.82,64 L798.13,64 L798.13,100.91 L759.82,100.91 Z" style="stroke-width: 1; stroke: rgb(74, 74, 74); fill: rgb(74, 144, 226);"/></g><g class="composite-shape"><path class="real" d=" M746.02,49.77 L784.33,49.77 L784.33,86.69 L746.02,86.69 Z" style="stroke-width: 1; stroke: rgb(74, 74, 74); fill: rgb(74, 144, 226);"/></g><g class="composite-shape"><path class="real" d=" M749.63,53.25 L787.94,53.25 L787.94,90.17 L749.63,90.17 Z" style="stroke-width: 1; stroke: rgb(74, 74, 74); fill: rgb(74, 144, 226);"/></g><g class="composite-shape"><path class="real" d=" M753.24,56.73 L791.55,56.73 L791.55,93.65 L753.24,93.65 Z" style="stroke-width: 1; stroke: rgb(74, 74, 74); fill: rgb(74, 144, 226);"/></g><g class="composite-shape"><path class="real" d=" M756.85,60.52 L795.16,60.52 L795.16,97.43 L756.85,97.43 Z" style="stroke-width: 1; stroke: rgb(74, 74, 74); fill: rgb(74, 144, 226);"/></g><g class="composite-shape"><path class="real" d=" M759.82,64 L798.13,64 L798.13,100.91 L759.82,100.91 Z" style="stroke-width: 1; stroke: rgb(74, 74, 74); fill: rgb(74, 144, 226);"/></g><g class="composite-shape"><path class="real" d=" M763.03,67.4 L801.34,67.4 L801.34,104.31 L763.03,104.31 Z" style="stroke-width: 1; stroke: rgb(74, 74, 74); fill: rgb(74, 144, 226);"/></g><g class="composite-shape"><path class="real" d=" M766.64,70.88 L804.95,70.88 L804.95,107.79 L766.64,107.79 Z" style="stroke-width: 1; stroke: rgb(74, 74, 74); fill: rgb(74, 144, 226);"/></g><g class="composite-shape"><path class="real" d=" M770.25,74.36 L808.56,74.36 L808.56,111.27 L770.25,111.27 Z" style="stroke-width: 1; stroke: rgb(74, 74, 74); fill: rgb(74, 144, 226);"/></g><g class="composite-shape"><path class="real" d=" M773.22,77.53 L811.53,77.53 L811.53,114.44 L773.22,114.44 Z" style="stroke-width: 1; stroke: rgb(74, 74, 74); fill: rgb(74, 144, 226);"/></g><g class="composite-shape"><path class="real" d=" M776.19,81.01 L814.5,81.01 L814.5,117.92 L776.19,117.92 Z" style="stroke-width: 1; stroke: rgb(74, 74, 74); fill: rgb(74, 144, 226);"/></g><g class="composite-shape"><path class="real" d=" M779.8,84.48 L818.11,84.48 L818.11,121.4 L779.8,121.4 Z" style="stroke-width: 1; stroke: rgb(74, 74, 74); fill: rgb(74, 144, 226);"/></g><g class="composite-shape"><path class="real" d=" M783.41,87.96 L821.72,87.96 L821.72,124.88 L783.41,124.88 Z" style="stroke-width: 1; stroke: rgb(74, 74, 74); fill: rgb(74, 144, 226);"/></g><g class="composite-shape"><path class="real" d=" M787.02,91.75 L825.33,91.75 L825.33,128.67 L787.02,128.67 Z" style="stroke-width: 1; stroke: rgb(74, 74, 74); fill: rgb(74, 144, 226);"/></g><g class="composite-shape"><path class="real" d=" M776.19,81.01 L814.5,81.01 L814.5,117.92 L776.19,117.92 Z" style="stroke-width: 1; stroke: rgb(74, 74, 74); fill: rgb(74, 144, 226);"/></g><g class="composite-shape"><path class="real" d=" M779.8,84.48 L818.11,84.48 L818.11,121.4 L779.8,121.4 Z" style="stroke-width: 1; stroke: rgb(74, 74, 74); fill: rgb(74, 144, 226);"/></g><g class="composite-shape"><path class="real" d=" M783.41,87.96 L821.72,87.96 L821.72,124.88 L783.41,124.88 Z" style="stroke-width: 1; stroke: rgb(74, 74, 74); fill: rgb(74, 144, 226);"/></g><g class="composite-shape"><path class="real" d=" M787.02,91.75 L825.33,91.75 L825.33,128.67 L787.02,128.67 Z" style="stroke-width: 1; stroke: rgb(74, 74, 74); fill: rgb(74, 144, 226);"/></g><g class="composite-shape"><path class="real" d=" M606.47,98.92 L657,98.92 L657,149.47 L606.47,149.47 Z" style="stroke-width: 1; stroke: rgb(74, 74, 74); fill: rgb(74, 144, 226);"/></g><g class="composite-shape"><path class="real" d=" M613.68,105.72 L664.2,105.72 L664.2,156.27 L613.68,156.27 Z" style="stroke-width: 1; stroke: rgb(74, 74, 74); fill: rgb(74, 144, 226);"/></g><g class="composite-shape"><path class="real" d=" M619.87,111.92 L670.4,111.92 L670.4,162.47 L619.87,162.47 Z" style="stroke-width: 1; stroke: rgb(74, 74, 74); fill: rgb(74, 144, 226);"/></g><g class="composite-shape"><path class="real" d=" M627.08,118.72 L677.6,118.72 L677.6,169.27 L627.08,169.27 Z" style="stroke-width: 1; stroke: rgb(74, 74, 74); fill: rgb(74, 144, 226);"/></g><g class="composite-shape"><path class="real" d=" M634.47,125.49 L685,125.49 L685,176.04 L634.47,176.04 Z" style="stroke-width: 1; stroke: rgb(74, 74, 74); fill: rgb(74, 144, 226);"/></g><g class="composite-shape"><path class="real" d=" M641.68,132.29 L692.2,132.29 L692.2,182.84 L641.68,182.84 Z" style="stroke-width: 1; stroke: rgb(74, 74, 74); fill: rgb(74, 144, 226);"/></g><g class="composite-shape"><path class="real" d=" M647.87,138.49 L698.4,138.49 L698.4,189.04 L647.87,189.04 Z" style="stroke-width: 1; stroke: rgb(74, 74, 74); fill: rgb(74, 144, 226);"/></g><g class="composite-shape"><path class="real" d=" M655.08,145.29 L705.6,145.29 L705.6,195.84 L655.08,195.84 Z" style="stroke-width: 1; stroke: rgb(74, 74, 74); fill: rgb(74, 144, 226);"/></g><g class="composite-shape"><path class="real" d=" M660.97,151.92 L711.5,151.92 L711.5,202.47 L660.97,202.47 Z" style="stroke-width: 1; stroke: rgb(74, 74, 74); fill: rgb(74, 144, 226);"/></g><g class="composite-shape"><path class="real" d=" M668.18,158.72 L718.7,158.72 L718.7,209.27 L668.18,209.27 Z" style="stroke-width: 1; stroke: rgb(74, 74, 74); fill: rgb(74, 144, 226);"/></g><g class="composite-shape"><path class="real" d=" M674.37,164.92 L724.9,164.92 L724.9,215.47 L674.37,215.47 Z" style="stroke-width: 1; stroke: rgb(74, 74, 74); fill: rgb(74, 144, 226);"/></g><g class="composite-shape"><path class="real" d=" M681.58,171.72 L732.1,171.72 L732.1,222.27 L681.58,222.27 Z" style="stroke-width: 1; stroke: rgb(74, 74, 74); fill: rgb(74, 144, 226);"/></g><g class="composite-shape"><path class="real" d=" M688.97,178.49 L739.5,178.49 L739.5,229.04 L688.97,229.04 Z" style="stroke-width: 1; stroke: rgb(74, 74, 74); fill: rgb(74, 144, 226);"/></g><g class="composite-shape"><path class="real" d=" M696.18,185.29 L746.7,185.29 L746.7,235.84 L696.18,235.84 Z" style="stroke-width: 1; stroke: rgb(74, 74, 74); fill: rgb(74, 144, 226);"/></g><g class="composite-shape"><path class="real" d=" M702.37,191.49 L752.9,191.49 L752.9,242.04 L702.37,242.04 Z" style="stroke-width: 1; stroke: rgb(74, 74, 74); fill: rgb(74, 144, 226);"/></g><g class="composite-shape"><path class="real" d=" M709.58,198.29 L760.1,198.29 L760.1,248.84 L709.58,248.84 Z" style="stroke-width: 1; stroke: rgb(74, 74, 74); fill: rgb(74, 144, 226);"/></g><g class="arrow-line"><path class="connection real" stroke-dasharray="1.125 3.35" d="  M550.25,206.18 L721,240.67" style="stroke: rgb(0, 0, 0); stroke-width: 1; fill: none;"/></g><g class="arrow-line"><path class="connection real" stroke-dasharray="1.125 3.35" d="  M550.25,178.07 L721,240.67" style="stroke: rgb(0, 0, 0); stroke-width: 1; fill: none;"/></g><g class="composite-shape"><path class="real" d=" M721.44,210.56 L735.83,210.56 L735.83,225.16 L721.44,225.16 Z" style="stroke-width: 3; stroke: rgba(208, 2, 27, 0.75); fill: rgba(208, 2, 27, 0.75);"/></g><g class="composite-shape"><path class="real" d=" M791.36,95.67 L829.67,95.67 L829.67,132.58 L791.36,132.58 Z" style="stroke-width: 1; stroke: rgb(74, 74, 74); fill: rgb(74, 144, 226);"/></g><g class="composite-shape"><path class="real" d=" M794.97,99.15 L833.28,99.15 L833.28,136.06 L794.97,136.06 Z" style="stroke-width: 1; stroke: rgb(74, 74, 74); fill: rgb(74, 144, 226);"/></g><g class="composite-shape"><path class="real" d=" M798.58,102.62 L836.89,102.62 L836.89,139.54 L798.58,139.54 Z" style="stroke-width: 1; stroke: rgb(74, 74, 74); fill: rgb(74, 144, 226);"/></g><g class="composite-shape"><path class="real" d=" M801.55,105.79 L839.86,105.79 L839.86,142.71 L801.55,142.71 Z" style="stroke-width: 1; stroke: rgb(74, 74, 74); fill: rgb(74, 144, 226);"/></g><g class="composite-shape"><path class="real" d=" M804.52,109.27 L842.83,109.27 L842.83,146.19 L804.52,146.19 Z" style="stroke-width: 1; stroke: rgb(74, 74, 74); fill: rgb(74, 144, 226);"/></g><g class="composite-shape"><path class="real" d=" M808.13,112.75 L846.44,112.75 L846.44,149.67 L808.13,149.67 Z" style="stroke-width: 1; stroke: rgb(74, 74, 74); fill: rgb(74, 144, 226);"/></g><g class="composite-shape"><path class="real" d=" M811.74,116.23 L850.05,116.23 L850.05,153.15 L811.74,153.15 Z" style="stroke-width: 1; stroke: rgb(74, 74, 74); fill: rgb(74, 144, 226);"/></g><g class="composite-shape"><path class="real" d=" M815.35,120.02 L853.66,120.02 L853.66,156.93 L815.35,156.93 Z" style="stroke-width: 1; stroke: rgb(74, 74, 74); fill: rgb(74, 144, 226);"/></g><g class="composite-shape"><path class="real" d=" M818.32,123.5 L856.63,123.5 L856.63,160.41 L818.32,160.41 Z" style="stroke-width: 1; stroke: rgb(74, 74, 74); fill: rgb(74, 144, 226);"/></g><g class="composite-shape"><path class="real" d=" M804.52,109.27 L842.83,109.27 L842.83,146.19 L804.52,146.19 Z" style="stroke-width: 1; stroke: rgb(74, 74, 74); fill: rgb(74, 144, 226);"/></g><g class="composite-shape"><path class="real" d=" M808.13,112.75 L846.44,112.75 L846.44,149.67 L808.13,149.67 Z" style="stroke-width: 1; stroke: rgb(74, 74, 74); fill: rgb(74, 144, 226);"/></g><g class="composite-shape"><path class="real" d=" M811.74,116.23 L850.05,116.23 L850.05,153.15 L811.74,153.15 Z" style="stroke-width: 1; stroke: rgb(74, 74, 74); fill: rgb(74, 144, 226);"/></g><g class="composite-shape"><path class="real" d=" M815.35,120.02 L853.66,120.02 L853.66,156.93 L815.35,156.93 Z" style="stroke-width: 1; stroke: rgb(74, 74, 74); fill: rgb(74, 144, 226);"/></g><g class="composite-shape"><path class="real" d=" M818.32,123.5 L856.63,123.5 L856.63,160.41 L818.32,160.41 Z" style="stroke-width: 1; stroke: rgb(74, 74, 74); fill: rgb(74, 144, 226);"/></g><g class="composite-shape"><path class="real" d=" M821.53,126.9 L859.84,126.9 L859.84,163.81 L821.53,163.81 Z" style="stroke-width: 1; stroke: rgb(74, 74, 74); fill: rgb(74, 144, 226);"/></g><g class="composite-shape"><path class="real" d=" M825.14,130.38 L863.45,130.38 L863.45,167.29 L825.14,167.29 Z" style="stroke-width: 1; stroke: rgb(74, 74, 74); fill: rgb(74, 144, 226);"/></g><g class="composite-shape"><path class="real" d=" M828.75,133.86 L867.06,133.86 L867.06,170.77 L828.75,170.77 Z" style="stroke-width: 1; stroke: rgb(74, 74, 74); fill: rgb(74, 144, 226);"/></g><g class="composite-shape"><path class="real" d=" M831.72,137.03 L870.03,137.03 L870.03,173.94 L831.72,173.94 Z" style="stroke-width: 1; stroke: rgb(74, 74, 74); fill: rgb(74, 144, 226);"/></g><g class="composite-shape"><path class="real" d=" M834.69,140.51 L873,140.51 L873,177.42 L834.69,177.42 Z" style="stroke-width: 1; stroke: rgb(74, 74, 74); fill: rgb(74, 144, 226);"/></g><g class="composite-shape"><path class="real" d=" M838.3,143.98 L876.61,143.98 L876.61,180.9 L838.3,180.9 Z" style="stroke-width: 1; stroke: rgb(74, 74, 74); fill: rgb(74, 144, 226);"/></g><g class="composite-shape"><path class="real" d=" M841.91,147.46 L880.22,147.46 L880.22,184.38 L841.91,184.38 Z" style="stroke-width: 1; stroke: rgb(74, 74, 74); fill: rgb(74, 144, 226);"/></g><g class="composite-shape"><path class="real" d=" M845.52,151.25 L883.83,151.25 L883.83,188.17 L845.52,188.17 Z" style="stroke-width: 1; stroke: rgb(74, 74, 74); fill: rgb(74, 144, 226);"/></g><g class="composite-shape"><path class="real" d=" M834.69,140.51 L873,140.51 L873,177.42 L834.69,177.42 Z" style="stroke-width: 1; stroke: rgb(74, 74, 74); fill: rgb(74, 144, 226);"/></g><g class="composite-shape"><path class="real" d=" M838.3,143.98 L876.61,143.98 L876.61,180.9 L838.3,180.9 Z" style="stroke-width: 1; stroke: rgb(74, 74, 74); fill: rgb(74, 144, 226);"/></g><g class="composite-shape"><path class="real" d=" M841.91,147.46 L880.22,147.46 L880.22,184.38 L841.91,184.38 Z" style="stroke-width: 1; stroke: rgb(74, 74, 74); fill: rgb(74, 144, 226);"/></g><g class="composite-shape"><path class="real" d=" M845.52,151.25 L883.83,151.25 L883.83,188.17 L845.52,188.17 Z" style="stroke-width: 1; stroke: rgb(74, 74, 74); fill: rgb(74, 144, 226);"/></g><g class="composite-shape"><path class="real" d=" M848.86,155.17 L887.17,155.17 L887.17,192.08 L848.86,192.08 Z" style="stroke-width: 1; stroke: rgb(74, 74, 74); fill: rgb(74, 144, 226);"/></g><g class="composite-shape"><path class="real" d=" M852.47,158.65 L890.78,158.65 L890.78,195.56 L852.47,195.56 Z" style="stroke-width: 1; stroke: rgb(74, 74, 74); fill: rgb(74, 144, 226);"/></g><g class="composite-shape"><path class="real" d=" M856.08,162.12 L894.39,162.12 L894.39,199.04 L856.08,199.04 Z" style="stroke-width: 1; stroke: rgb(74, 74, 74); fill: rgb(74, 144, 226);"/></g><g class="composite-shape"><path class="real" d=" M859.05,165.29 L897.36,165.29 L897.36,202.21 L859.05,202.21 Z" style="stroke-width: 1; stroke: rgb(74, 74, 74); fill: rgb(74, 144, 226);"/></g><g class="composite-shape"><path class="real" d=" M862.02,168.77 L900.33,168.77 L900.33,205.69 L862.02,205.69 Z" style="stroke-width: 1; stroke: rgb(74, 74, 74); fill: rgb(74, 144, 226);"/></g><g class="composite-shape"><path class="real" d=" M865.63,172.25 L903.94,172.25 L903.94,209.17 L865.63,209.17 Z" style="stroke-width: 1; stroke: rgb(74, 74, 74); fill: rgb(74, 144, 226);"/></g><g class="composite-shape"><path class="real" d=" M869.24,175.73 L907.55,175.73 L907.55,212.65 L869.24,212.65 Z" style="stroke-width: 1; stroke: rgb(74, 74, 74); fill: rgb(74, 144, 226);"/></g><g class="composite-shape"><path class="real" d=" M872.85,179.52 L911.16,179.52 L911.16,216.43 L872.85,216.43 Z" style="stroke-width: 1; stroke: rgb(74, 74, 74); fill: rgb(74, 144, 226);"/></g><g class="composite-shape"><path class="real" d=" M875.82,183 L914.13,183 L914.13,219.91 L875.82,219.91 Z" style="stroke-width: 1; stroke: rgb(74, 74, 74); fill: rgb(74, 144, 226);"/></g><g class="composite-shape"><path class="real" d=" M862.02,168.77 L900.33,168.77 L900.33,205.69 L862.02,205.69 Z" style="stroke-width: 1; stroke: rgb(74, 74, 74); fill: rgb(74, 144, 226);"/></g><g class="composite-shape"><path class="real" d=" M865.63,172.25 L903.94,172.25 L903.94,209.17 L865.63,209.17 Z" style="stroke-width: 1; stroke: rgb(74, 74, 74); fill: rgb(74, 144, 226);"/></g><g class="composite-shape"><path class="real" d=" M869.24,175.73 L907.55,175.73 L907.55,212.65 L869.24,212.65 Z" style="stroke-width: 1; stroke: rgb(74, 74, 74); fill: rgb(74, 144, 226);"/></g><g class="composite-shape"><path class="real" d=" M872.85,179.52 L911.16,179.52 L911.16,216.43 L872.85,216.43 Z" style="stroke-width: 1; stroke: rgb(74, 74, 74); fill: rgb(74, 144, 226);"/></g><g class="composite-shape"><path class="real" d=" M875.82,183 L914.13,183 L914.13,219.91 L875.82,219.91 Z" style="stroke-width: 1; stroke: rgb(74, 74, 74); fill: rgb(74, 144, 226);"/></g><g class="composite-shape"><path class="real" d=" M879.03,186.4 L917.34,186.4 L917.34,223.31 L879.03,223.31 Z" style="stroke-width: 1; stroke: rgb(74, 74, 74); fill: rgb(74, 144, 226);"/></g><g class="composite-shape"><path class="real" d=" M882.64,189.88 L920.95,189.88 L920.95,226.79 L882.64,226.79 Z" style="stroke-width: 1; stroke: rgb(74, 74, 74); fill: rgb(74, 144, 226);"/></g><g class="composite-shape"><path class="real" d=" M886.25,193.36 L924.56,193.36 L924.56,230.27 L886.25,230.27 Z" style="stroke-width: 1; stroke: rgb(74, 74, 74); fill: rgb(74, 144, 226);"/></g><g class="composite-shape"><path class="real" d=" M889.22,196.53 L927.53,196.53 L927.53,233.44 L889.22,233.44 Z" style="stroke-width: 1; stroke: rgb(74, 74, 74); fill: rgb(74, 144, 226);"/></g><g class="composite-shape"><path class="real" d=" M892.19,200.01 L930.5,200.01 L930.5,236.92 L892.19,236.92 Z" style="stroke-width: 1; stroke: rgb(74, 74, 74); fill: rgb(74, 144, 226);"/></g><g class="composite-shape"><path class="real" d=" M895.8,203.48 L934.11,203.48 L934.11,240.4 L895.8,240.4 Z" style="stroke-width: 1; stroke: rgb(74, 74, 74); fill: rgb(74, 144, 226);"/></g><g class="composite-shape"><path class="real" d=" M899.41,206.96 L937.72,206.96 L937.72,243.88 L899.41,243.88 Z" style="stroke-width: 1; stroke: rgb(74, 74, 74); fill: rgb(74, 144, 226);"/></g><g class="composite-shape"><path class="real" d=" M903.02,210.75 L941.33,210.75 L941.33,247.67 L903.02,247.67 Z" style="stroke-width: 1; stroke: rgb(74, 74, 74); fill: rgb(74, 144, 226);"/></g><g class="composite-shape"><path class="real" d=" M892.19,200.01 L930.5,200.01 L930.5,236.92 L892.19,236.92 Z" style="stroke-width: 1; stroke: rgb(74, 74, 74); fill: rgb(74, 144, 226);"/></g><g class="composite-shape"><path class="real" d=" M895.8,203.48 L934.11,203.48 L934.11,240.4 L895.8,240.4 Z" style="stroke-width: 1; stroke: rgb(74, 74, 74); fill: rgb(74, 144, 226);"/></g><g class="composite-shape"><path class="real" d=" M899.41,206.96 L937.72,206.96 L937.72,243.88 L899.41,243.88 Z" style="stroke-width: 1; stroke: rgb(74, 74, 74); fill: rgb(74, 144, 226);"/></g><g class="composite-shape"><path class="real" d=" M903.02,210.75 L941.33,210.75 L941.33,247.67 L903.02,247.67 Z" style="stroke-width: 1; stroke: rgb(74, 74, 74); fill: rgb(74, 144, 226);"/></g><g class="composite-shape"><path class="real" d=" M907.36,214.67 L945.67,214.67 L945.67,251.58 L907.36,251.58 Z" style="stroke-width: 1; stroke: rgb(74, 74, 74); fill: rgb(74, 144, 226);"/></g><g class="composite-shape"><path class="real" d=" M910.97,218.15 L949.28,218.15 L949.28,255.06 L910.97,255.06 Z" style="stroke-width: 1; stroke: rgb(74, 74, 74); fill: rgb(74, 144, 226);"/></g><g class="composite-shape"><path class="real" d=" M914.58,221.62 L952.89,221.62 L952.89,258.54 L914.58,258.54 Z" style="stroke-width: 1; stroke: rgb(74, 74, 74); fill: rgb(74, 144, 226);"/></g><g class="composite-shape"><path class="real" d=" M917.55,224.79 L955.86,224.79 L955.86,261.71 L917.55,261.71 Z" style="stroke-width: 1; stroke: rgb(74, 74, 74); fill: rgb(74, 144, 226);"/></g><g class="composite-shape"><path class="real" d=" M920.52,228.27 L958.83,228.27 L958.83,265.19 L920.52,265.19 Z" style="stroke-width: 1; stroke: rgb(74, 74, 74); fill: rgb(74, 144, 226);"/></g><g class="composite-shape"><path class="real" d=" M924.13,231.75 L962.44,231.75 L962.44,268.67 L924.13,268.67 Z" style="stroke-width: 1; stroke: rgb(74, 74, 74); fill: rgb(74, 144, 226);"/></g><g class="composite-shape"><path class="real" d=" M927.74,235.23 L966.05,235.23 L966.05,272.15 L927.74,272.15 Z" style="stroke-width: 1; stroke: rgb(74, 74, 74); fill: rgb(74, 144, 226);"/></g><g class="composite-shape"><path class="real" d=" M931.35,239.02 L969.66,239.02 L969.66,275.93 L931.35,275.93 Z" style="stroke-width: 1; stroke: rgb(74, 74, 74); fill: rgb(74, 144, 226);"/></g><g class="composite-shape"><path class="real" d=" M934.32,242.5 L972.63,242.5 L972.63,279.41 L934.32,279.41 Z" style="stroke-width: 1; stroke: rgb(74, 74, 74); fill: rgb(74, 144, 226);"/></g><g class="composite-shape"><path class="real" d=" M920.52,228.27 L958.83,228.27 L958.83,265.19 L920.52,265.19 Z" style="stroke-width: 1; stroke: rgb(74, 74, 74); fill: rgb(74, 144, 226);"/></g><g class="composite-shape"><path class="real" d=" M924.13,231.75 L962.44,231.75 L962.44,268.67 L924.13,268.67 Z" style="stroke-width: 1; stroke: rgb(74, 74, 74); fill: rgb(74, 144, 226);"/></g><g class="composite-shape"><path class="real" d=" M927.74,235.23 L966.05,235.23 L966.05,272.15 L927.74,272.15 Z" style="stroke-width: 1; stroke: rgb(74, 74, 74); fill: rgb(74, 144, 226);"/></g><g class="composite-shape"><path class="real" d=" M931.35,239.02 L969.66,239.02 L969.66,275.93 L931.35,275.93 Z" style="stroke-width: 1; stroke: rgb(74, 74, 74); fill: rgb(74, 144, 226);"/></g><g class="composite-shape"><path class="real" d=" M934.32,242.5 L972.63,242.5 L972.63,279.41 L934.32,279.41 Z" style="stroke-width: 1; stroke: rgb(74, 74, 74); fill: rgb(74, 144, 226);"/></g><g class="composite-shape"><path class="real" d=" M937.53,245.9 L975.84,245.9 L975.84,282.81 L937.53,282.81 Z" style="stroke-width: 1; stroke: rgb(74, 74, 74); fill: rgb(74, 144, 226);"/></g><g class="composite-shape"><path class="real" d=" M987.75,329.86 L1026.06,329.86 L1026.06,366.77 L987.75,366.77 Z" style="stroke-width: 1; stroke: rgb(74, 74, 74); fill: rgb(74, 144, 226);"/></g><g class="composite-shape"><path class="real" d=" M990.72,333.03 L1029.03,333.03 L1029.03,369.94 L990.72,369.94 Z" style="stroke-width: 1; stroke: rgb(74, 74, 74); fill: rgb(74, 144, 226);"/></g><g class="composite-shape"><path class="real" d=" M993.69,336.51 L1032,336.51 L1032,373.42 L993.69,373.42 Z" style="stroke-width: 1; stroke: rgb(74, 74, 74); fill: rgb(74, 144, 226);"/></g><g class="composite-shape"><path class="real" d=" M997.3,339.98 L1035.61,339.98 L1035.61,376.9 L997.3,376.9 Z" style="stroke-width: 1; stroke: rgb(74, 74, 74); fill: rgb(74, 144, 226);"/></g><g class="composite-shape"><path class="real" d=" M1000.91,343.46 L1039.22,343.46 L1039.22,380.38 L1000.91,380.38 Z" style="stroke-width: 1; stroke: rgb(74, 74, 74); fill: rgb(74, 144, 226);"/></g><g class="composite-shape"><path class="real" d=" M1004.52,347.25 L1042.83,347.25 L1042.83,384.17 L1004.52,384.17 Z" style="stroke-width: 1; stroke: rgb(74, 74, 74); fill: rgb(74, 144, 226);"/></g><g class="composite-shape"><path class="real" d=" M993.69,336.51 L1032,336.51 L1032,373.42 L993.69,373.42 Z" style="stroke-width: 1; stroke: rgb(74, 74, 74); fill: rgb(74, 144, 226);"/></g><g class="composite-shape"><path class="real" d=" M997.3,339.98 L1035.61,339.98 L1035.61,376.9 L997.3,376.9 Z" style="stroke-width: 1; stroke: rgb(74, 74, 74); fill: rgb(74, 144, 226);"/></g><g class="composite-shape"><path class="real" d=" M1000.91,343.46 L1039.22,343.46 L1039.22,380.38 L1000.91,380.38 Z" style="stroke-width: 1; stroke: rgb(74, 74, 74); fill: rgb(74, 144, 226);"/></g><g class="composite-shape"><path class="real" d=" M1004.52,347.25 L1042.83,347.25 L1042.83,384.17 L1004.52,384.17 Z" style="stroke-width: 1; stroke: rgb(74, 74, 74); fill: rgb(74, 144, 226);"/></g><g class="arrow-line"><path class="connection real" stroke-dasharray="1.125 3.35" d="  M735.83,210.56 L953.48,260.96" style="stroke: rgb(0, 0, 0); stroke-width: 1; fill: none;"/></g><g class="arrow-line"><path class="connection real" stroke-dasharray="1.125 3.35" d="  M735.83,225.16 L953.48,260.96" style="stroke: rgb(0, 0, 0); stroke-width: 1; fill: none;"/></g><g class="arrow-line"><path class="connection real" stroke-dasharray="7.5 6" d="  M771.17,36.17 L925.5,51" style="stroke: rgb(74, 74, 74); stroke-width: 2; fill: none;"/></g><g class="arrow-line"><path class="connection real" stroke-dasharray="7.5 6" d="  M975.84,245.9 L1151.5,281" style="stroke: rgb(74, 74, 74); stroke-width: 2; fill: none;"/></g><g class="arrow-line"><path class="connection real" stroke-dasharray="7.5 6" d="  M967.06,43.5 L1202.5,111" style="stroke: rgb(74, 74, 74); stroke-width: 2; fill: none;"/></g><g class="arrow-line"><path class="connection real" stroke-dasharray="7.5 6" d="  M1202.5,111 L1198.54,274.1" style="stroke: rgb(74, 74, 74); stroke-width: 2; fill: none;"/></g><g class="composite-shape"><path class="real" d=" M925.95,50.92 L967.06,43.5 L1198.54,274.1 L1157.43,281.52 Z" style="stroke-width: 3; stroke: rgb(128, 128, 128); fill: rgba(245, 166, 35, 0.75);"/></g><g class="composite-shape"><path class="real" d=" M1194.75,111 C1194.75,106.72 1198.22,103.25 1202.5,103.25 C1206.78,103.25 1210.25,106.72 1210.25,111 C1210.25,115.28 1206.78,118.75 1202.5,118.75 C1198.22,118.75 1194.75,115.28 1194.75,111 Z" style="stroke-width: 1; stroke: rgb(128, 128, 128); fill: rgb(245, 166, 35);"/></g><g class="arrow-line"><path class="connection real" stroke-dasharray="" d="  M182.5,296 L182.5,248" style="stroke: rgb(0, 0, 0); stroke-width: 3; fill: none;"/><g stroke="#000" transform="matrix(3.061616997868383e-16,1,-1,3.061616997868383e-16,182.5,244)" style="stroke: rgb(0, 0, 0); stroke-width: 3;"><path d=" M17.49,-5.26 Q7.94,-0.72 0,0 Q7.94,0.72 17.49,5.26"/></g></g><g class="arrow-line"><path class="connection real" stroke-dasharray="" d="  M413.5,301 L413.5,254" style="stroke: rgb(0, 0, 0); stroke-width: 3; fill: none;"/><g stroke="#000" transform="matrix(3.061616997868383e-16,1,-1,3.061616997868383e-16,413.5,250)" style="stroke: rgb(0, 0, 0); stroke-width: 3;"><path d=" M17.49,-5.26 Q7.94,-0.72 0,0 Q7.94,0.72 17.49,5.26"/></g></g><g class="arrow-line"><path class="connection real" stroke-dasharray="" d="  M626.5,297 L626.5,249" style="stroke: rgb(0, 0, 0); stroke-width: 3; fill: none;"/><g stroke="#000" transform="matrix(3.061616997868383e-16,1,-1,3.061616997868383e-16,626.5,245)" style="stroke: rgb(0, 0, 0); stroke-width: 3;"><path d=" M17.49,-5.26 Q7.94,-0.72 0,0 Q7.94,0.72 17.49,5.26"/></g></g><g class="arrow-line"><path class="connection real" stroke-dasharray="" d="  M809.5,302.37 L809.5,263" style="stroke: rgb(0, 0, 0); stroke-width: 3; fill: none;"/><g stroke="#000" transform="matrix(3.061616997868383e-16,1,-1,3.061616997868383e-16,809.5,259)" style="stroke: rgb(0, 0, 0); stroke-width: 3;"><path d=" M17.49,-5.26 Q7.94,-0.72 0,0 Q7.94,0.72 17.49,5.26"/></g></g><g class="arrow-line"><path class="connection real" stroke-dasharray="" d="  M1042.5,298 L1042.5,199" style="stroke: rgb(0, 0, 0); stroke-width: 3; fill: none;"/><g stroke="#000" transform="matrix(3.061616997868383e-16,1,-1,3.061616997868383e-16,1042.5,195)" style="stroke: rgb(0, 0, 0); stroke-width: 3;"><path d=" M17.49,-5.26 Q7.94,-0.72 0,0 Q7.94,0.72 17.49,5.26"/></g></g><g class="intersections-group"><g style="stroke: rgb(0, 0, 0); stroke-width: 1; fill: none;"/></g></g><g/><g/><!-- react-empty: 277 --></svg>
        <svg xmlns="http://www.w3.org/2000/svg" width="1328" height="329" style="width:1328px;height:329px;font-family:Asana-Math, Asana;background:transparent;"><g><g><text x="1175.96875" y="63.5" style="white-space:pre;stroke:none;fill:rgb(0, 0, 0);font-size:21.6px;font-family:Arial, Helvetica, sans-serif;font-weight:400;dominant-baseline:text-before-edge;text-decoration:none solid rgb(0, 0, 0);">output</text></g></g><g><g><text x="121.9609375" y="299.5" style="white-space:pre;stroke:none;fill:rgb(0, 0, 0);font-size:21.6px;font-family:Arial, Helvetica, sans-serif;font-weight:400;dominant-baseline:text-before-edge;text-decoration:none solid rgb(0, 0, 0);">convolutions</text></g></g><g><g><text x="353.359375" y="298.5" style="white-space:pre;stroke:none;fill:rgb(0, 0, 0);font-size:21.6px;font-family:Arial, Helvetica, sans-serif;font-weight:400;dominant-baseline:text-before-edge;text-decoration:none solid rgb(0, 0, 0);">subsampling</text></g></g><g><g><text x="165.9609375" y="54.890625" style="white-space:pre;stroke:none;fill:rgb(0, 0, 0);font-size:21.6px;font-family:Arial, Helvetica, sans-serif;font-weight:400;dominant-baseline:text-before-edge;text-decoration:none solid rgb(0, 0, 0);">feature maps</text></g></g><g><g><text x="369.9609375" y="54.890625" style="white-space:pre;stroke:none;fill:rgb(0, 0, 0);font-size:21.6px;font-family:Arial, Helvetica, sans-serif;font-weight:400;dominant-baseline:text-before-edge;text-decoration:none solid rgb(0, 0, 0);">feature maps</text></g></g><g><g><text x="554.9609375" y="54.890625" style="white-space:pre;stroke:none;fill:rgb(0, 0, 0);font-size:21.6px;font-family:Arial, Helvetica, sans-serif;font-weight:400;dominant-baseline:text-before-edge;text-decoration:none solid rgb(0, 0, 0);">feature maps</text></g></g><g><g><text x="683.9609375" y="4.390625" style="white-space:pre;stroke:none;fill:rgb(0, 0, 0);font-size:21.6px;font-family:Arial, Helvetica, sans-serif;font-weight:400;dominant-baseline:text-before-edge;text-decoration:none solid rgb(0, 0, 0);">feature maps</text></g></g><g><g><text x="565.9609375" y="300.5" style="white-space:pre;stroke:none;fill:rgb(0, 0, 0);font-size:21.6px;font-family:Arial, Helvetica, sans-serif;font-weight:400;dominant-baseline:text-before-edge;text-decoration:none solid rgb(0, 0, 0);">convolutions</text></g></g><g><g><text x="749.359375" y="298.359375" style="white-space:pre;stroke:none;fill:rgb(0, 0, 0);font-size:21.6px;font-family:Arial, Helvetica, sans-serif;font-weight:400;dominant-baseline:text-before-edge;text-decoration:none solid rgb(0, 0, 0);">subsampling</text></g></g><g><g><text x="969.3515625" y="296" style="white-space:pre;stroke:none;fill:rgb(0, 0, 0);font-size:21.6px;font-family:Arial, Helvetica, sans-serif;font-weight:400;dominant-baseline:text-before-edge;text-decoration:none solid rgb(0, 0, 0);">fully-connected</text></g></g><g><g><text x="9.3671875" y="80.5" style="white-space:pre;stroke:none;fill:rgb(0, 0, 0);font-size:21.6px;font-family:Arial, Helvetica, sans-serif;font-weight:400;dominant-baseline:text-before-edge;text-decoration:none solid rgb(0, 0, 0);">input lattice</text></g></g></svg>
</svg>
