<svg xmlns="http://www.w3.org/2000/svg" width="762" height="269" style="
        width:762px;
        height:269px;
        background: transparent;
        fill: none;
">
        
        <svg xmlns="http://www.w3.org/2000/svg"><g class="shapes-region" style="stroke: black; fill: none;"><g class="arrow-line"><path class="connection real" stroke-dasharray="" d="  M31.09,128.12 L77.9,200.58" style="stroke: rgba(128, 128, 128, 0.5); stroke-width: 1; fill: none;"/></g><g class="composite-shape"><path class="real" d=" M126.24,26.41 L217.84,26.41 L217.84,116.37 L126.24,116.37 Z" style="stroke-width: 1; stroke: rgb(74, 74, 74); fill: rgb(74, 144, 226);"/></g><g class="composite-shape"><path class="real" d=" M142.6,43.96 L234.2,43.96 L234.2,133.92 L142.6,133.92 Z" style="stroke-width: 1; stroke: rgb(74, 74, 74); fill: rgb(74, 144, 226);"/></g><g class="composite-shape"><path class="real" d=" M158.96,61.51 L250.56,61.51 L250.56,151.47 L158.96,151.47 Z" style="stroke-width: 1; stroke: rgb(74, 74, 74); fill: rgb(74, 144, 226);"/></g><g class="composite-shape"><path class="real" d=" M175.32,79.06 L266.92,79.06 L266.92,169.02 L175.32,169.02 Z" style="stroke-width: 1; stroke: rgb(74, 74, 74); fill: rgb(74, 144, 226);"/></g><g class="composite-shape"><path class="real" d=" M7.2,56.44 L102.78,56.44 L102.78,152.01 L7.2,152.01 Z" style="stroke-width: 2; stroke: none; fill: none;"/><path class="real" d=" M19.15,56.44 L19.15,152.01 M31.09,56.44 L31.09,152.01 M43.04,56.44 L43.04,152.01 M54.99,56.44 L54.99,152.01 M66.94,56.44 L66.94,152.01 M78.88,56.44 L78.88,152.01 M90.83,56.44 L90.83,152.01" style="stroke-width: 2; stroke: rgb(128, 128, 128); fill: none;"/><path class="real" d=" M7.2,68.38 L102.78,68.38 M7.2,80.33 L102.78,80.33 M7.2,92.28 L102.78,92.28 M7.2,104.23 L102.78,104.23 M7.2,116.17 L102.78,116.17 M7.2,128.12 L102.78,128.12 M7.2,140.07 L102.78,140.07" style="stroke-width: 2; stroke: rgb(128, 128, 128); fill: none;"/><path class="real" d=" M7.2,56.44 L102.78,56.44 L102.78,152.01 L7.2,152.01 Z" style="stroke-width: 2; stroke: rgb(128, 128, 128); fill: none;"/></g><g class="composite-shape"><path class="real" d=" M19.15,116.17 L31.09,116.17 L31.09,128.12 L19.15,128.12 Z" style="stroke-width: 2; stroke: rgba(126, 211, 33, 0.6); fill: rgba(126, 211, 33, 0.5);"/></g><g class="composite-shape"><path class="real" d=" M278.3,46.29 L361.39,46.29 L361.85,108.99 L278.76,108.99 Z" style="stroke-width: 1; stroke: rgb(74, 74, 74); fill: rgb(74, 144, 226);"/></g><g class="composite-shape"><path class="real" d=" M283.61,52.49 L366.69,52.49 L367.16,115.19 L284.07,115.19 Z" style="stroke-width: 1; stroke: rgb(74, 74, 74); fill: rgb(74, 144, 226);"/></g><g class="composite-shape"><path class="real" d=" M289.75,58.96 L372.84,58.96 L373.3,121.66 L290.21,121.66 Z" style="stroke-width: 1; stroke: rgb(74, 74, 74); fill: rgb(74, 144, 226);"/></g><g class="composite-shape"><path class="real" d=" M295.32,65.12 L378.41,65.12 L378.87,127.81 L295.78,127.81 Z" style="stroke-width: 1; stroke: rgb(74, 74, 74); fill: rgb(74, 144, 226);"/></g><g class="composite-shape"><path class="real" d=" M301.46,71.66 L384.55,71.66 L385.01,134.35 L301.92,134.35 Z" style="stroke-width: 1; stroke: rgb(74, 74, 74); fill: rgb(74, 144, 226);"/></g><g class="composite-shape"><path class="real" d=" M307.71,78.23 L390.8,78.23 L391.26,140.92 L308.17,140.92 Z" style="stroke-width: 1; stroke: rgb(74, 74, 74); fill: rgb(74, 144, 226);"/></g><g class="composite-shape"><path class="real" d=" M313.17,84.73 L396.26,84.73 L396.72,147.42 L313.63,147.42 Z" style="stroke-width: 1; stroke: rgb(74, 74, 74); fill: rgb(74, 144, 226);"/></g><g class="composite-shape"><path class="real" d=" M44.48,164.72 L77.9,164.72 L77.9,200.58 L44.48,200.58 Z" style="stroke-width: 1; stroke: rgb(126, 211, 33); fill: rgba(126, 211, 33, 0.5);"/></g><g class="arrow-line"><path class="connection real" stroke-dasharray="" d="  M59.38,197.18 L67.79,205" style="stroke: rgb(128, 128, 128); stroke-width: 1; fill: none;"/><g stroke="none" fill="rgba(128,128,128,1)" transform="matrix(-0.7323052377541318,-0.6809765331917572,0.6809765331917572,-0.7323052377541318,69.2564100879637,206.36283458770947)" style="stroke: none; fill: rgb(128, 128, 128); stroke-width: 1;"><path d=" M10.72,-5.15 L0,0 L10.72,5.15 L7.12,0 Z"/></g></g><g class="arrow-line"><path class="connection real" stroke-dasharray="" d="  M73.13,185.58 L82.27,178.44" style="stroke: rgb(128, 128, 128); stroke-width: 1; fill: none;"/><g stroke="none" fill="rgba(128,128,128,1)" transform="matrix(-0.7884403743312582,0.6151111900497221,-0.6151111900497221,-0.7884403743312582,83.84599473116918,177.2125886839795)" style="stroke: none; fill: rgb(128, 128, 128); stroke-width: 1;"><path d=" M10.72,-5.15 L0,0 L10.72,5.15 L7.12,0 Z"/></g></g><g class="arrow-line"><path class="connection real" stroke-dasharray="" d="  M63.28,168.43 L57.17,158.39" style="stroke: rgb(128, 128, 128); stroke-width: 1; fill: none;"/><g stroke="none" fill="rgba(128,128,128,1)" transform="matrix(0.5202645699620947,0.8540051388850987,-0.8540051388850987,0.5202645699620947,56.12669759818739,156.68612062201845)" style="stroke: none; fill: rgb(128, 128, 128); stroke-width: 1;"><path d=" M10.72,-5.15 L0,0 L10.72,5.15 L7.12,0 Z"/></g></g><g class="arrow-line"><path class="connection real" stroke-dasharray="" d="  M48.86,180.56 L38.86,186.61" style="stroke: rgb(128, 128, 128); stroke-width: 1; fill: none;"/><g stroke="none" fill="rgba(128,128,128,1)" transform="matrix(0.8555450335836201,-0.517728399366311,0.517728399366311,0.8555450335836201,37.15242044409155,187.6425783163802)" style="stroke: none; fill: rgb(128, 128, 128); stroke-width: 1;"><path d=" M10.72,-5.15 L0,0 L10.72,5.15 L7.12,0 Z"/></g></g><g class="arrow-line"><path class="connection real" stroke-dasharray="" d="  M19.15,116.17 L44.48,164.72" style="stroke: rgba(128, 128, 128, 0.5); stroke-width: 1; fill: none;"/></g><g class="composite-shape"><path class="real" d=" M319.27,91.82 L402.36,91.82 L402.82,154.51 L319.73,154.51 Z" style="stroke-width: 1; stroke: rgb(74, 74, 74); fill: rgb(74, 144, 226);"/></g><g class="composite-shape"><path class="real" d=" M325.65,98.61 L408.74,98.61 L409.2,161.31 L326.11,161.31 Z" style="stroke-width: 1; stroke: rgb(74, 74, 74); fill: rgb(74, 144, 226);"/></g><g class="composite-shape"><path class="real" d=" M331.47,104.91 L414.56,104.91 L415.02,167.61 L331.93,167.61 Z" style="stroke-width: 1; stroke: rgb(74, 74, 74); fill: rgb(74, 144, 226);"/></g><g class="arrow-line"><path class="connection real" stroke-dasharray="6 6" d="  M222.95,101.8 L357.26,157.34" style="stroke: rgb(74, 74, 74); stroke-width: 1; fill: none;"/></g><g class="arrow-line"><path class="connection real" stroke-dasharray="6 6" d="  M222.95,122.7 L357.26,157.34" style="stroke: rgb(74, 74, 74); stroke-width: 1; fill: none;"/></g><g class="composite-shape"><path class="real" d=" M486.24,22.8 L512.81,22.8 L512.81,50.26 L486.24,50.26 Z" style="stroke-width: 1; stroke: rgb(74, 74, 74); fill: rgb(74, 144, 226);"/></g><g class="composite-shape"><path class="real" d=" M488.74,25.39 L515.31,25.39 L515.31,52.85 L488.74,52.85 Z" style="stroke-width: 1; stroke: rgb(74, 74, 74); fill: rgb(74, 144, 226);"/></g><g class="composite-shape"><path class="real" d=" M491.25,28.21 L517.81,28.21 L517.81,55.67 L491.25,55.67 Z" style="stroke-width: 1; stroke: rgb(74, 74, 74); fill: rgb(74, 144, 226);"/></g><g class="composite-shape"><path class="real" d=" M493.31,30.8 L519.87,30.8 L519.87,58.26 L493.31,58.26 Z" style="stroke-width: 1; stroke: rgb(74, 74, 74); fill: rgb(74, 144, 226);"/></g><g class="composite-shape"><path class="real" d=" M486.24,22.8 L512.81,22.8 L512.81,50.26 L486.24,50.26 Z" style="stroke-width: 1; stroke: rgb(74, 74, 74); fill: rgb(74, 144, 226);"/></g><g class="composite-shape"><path class="real" d=" M488.74,25.39 L515.31,25.39 L515.31,52.85 L488.74,52.85 Z" style="stroke-width: 1; stroke: rgb(74, 74, 74); fill: rgb(74, 144, 226);"/></g><g class="composite-shape"><path class="real" d=" M491.25,28.21 L517.81,28.21 L517.81,55.67 L491.25,55.67 Z" style="stroke-width: 1; stroke: rgb(74, 74, 74); fill: rgb(74, 144, 226);"/></g><g class="composite-shape"><path class="real" d=" M493.31,30.8 L519.87,30.8 L519.87,58.26 L493.31,58.26 Z" style="stroke-width: 1; stroke: rgb(74, 74, 74); fill: rgb(74, 144, 226);"/></g><g class="composite-shape"><path class="real" d=" M495.53,33.33 L522.1,33.33 L522.1,60.79 L495.53,60.79 Z" style="stroke-width: 1; stroke: rgb(74, 74, 74); fill: rgb(74, 144, 226);"/></g><g class="composite-shape"><path class="real" d=" M498.03,35.91 L524.6,35.91 L524.6,63.37 L498.03,63.37 Z" style="stroke-width: 1; stroke: rgb(74, 74, 74); fill: rgb(74, 144, 226);"/></g><g class="composite-shape"><path class="real" d=" M500.54,38.5 L527.1,38.5 L527.1,65.96 L500.54,65.96 Z" style="stroke-width: 1; stroke: rgb(74, 74, 74); fill: rgb(74, 144, 226);"/></g><g class="composite-shape"><path class="real" d=" M502.6,40.86 L529.16,40.86 L529.16,68.32 L502.6,68.32 Z" style="stroke-width: 1; stroke: rgb(74, 74, 74); fill: rgb(74, 144, 226);"/></g><g class="composite-shape"><path class="real" d=" M504.66,43.45 L531.22,43.45 L531.22,70.91 L504.66,70.91 Z" style="stroke-width: 1; stroke: rgb(74, 74, 74); fill: rgb(74, 144, 226);"/></g><g class="composite-shape"><path class="real" d=" M507.16,46.04 L533.72,46.04 L533.72,73.5 L507.16,73.5 Z" style="stroke-width: 1; stroke: rgb(74, 74, 74); fill: rgb(74, 144, 226);"/></g><g class="composite-shape"><path class="real" d=" M509.66,48.62 L536.23,48.62 L536.23,76.08 L509.66,76.08 Z" style="stroke-width: 1; stroke: rgb(74, 74, 74); fill: rgb(74, 144, 226);"/></g><g class="composite-shape"><path class="real" d=" M512.17,51.44 L538.73,51.44 L538.73,78.9 L512.17,78.9 Z" style="stroke-width: 1; stroke: rgb(74, 74, 74); fill: rgb(74, 144, 226);"/></g><g class="composite-shape"><path class="real" d=" M504.66,43.45 L531.22,43.45 L531.22,70.91 L504.66,70.91 Z" style="stroke-width: 1; stroke: rgb(74, 74, 74); fill: rgb(74, 144, 226);"/></g><g class="composite-shape"><path class="real" d=" M507.16,46.04 L533.72,46.04 L533.72,73.5 L507.16,73.5 Z" style="stroke-width: 1; stroke: rgb(74, 74, 74); fill: rgb(74, 144, 226);"/></g><g class="composite-shape"><path class="real" d=" M509.66,48.62 L536.23,48.62 L536.23,76.08 L509.66,76.08 Z" style="stroke-width: 1; stroke: rgb(74, 74, 74); fill: rgb(74, 144, 226);"/></g><g class="composite-shape"><path class="real" d=" M512.17,51.44 L538.73,51.44 L538.73,78.9 L512.17,78.9 Z" style="stroke-width: 1; stroke: rgb(74, 74, 74); fill: rgb(74, 144, 226);"/></g><g class="composite-shape"><path class="real" d=" M418.61,57.59 L453.65,57.59 L453.65,95.2 L418.61,95.2 Z" style="stroke-width: 1; stroke: rgb(74, 74, 74); fill: rgb(74, 144, 226);"/></g><g class="composite-shape"><path class="real" d=" M423.61,62.65 L458.64,62.65 L458.64,100.26 L423.61,100.26 Z" style="stroke-width: 1; stroke: rgb(74, 74, 74); fill: rgb(74, 144, 226);"/></g><g class="composite-shape"><path class="real" d=" M427.9,67.27 L462.94,67.27 L462.94,104.87 L427.9,104.87 Z" style="stroke-width: 1; stroke: rgb(74, 74, 74); fill: rgb(74, 144, 226);"/></g><g class="composite-shape"><path class="real" d=" M432.9,72.32 L467.93,72.32 L467.93,109.93 L432.9,109.93 Z" style="stroke-width: 1; stroke: rgb(74, 74, 74); fill: rgb(74, 144, 226);"/></g><g class="composite-shape"><path class="real" d=" M438.03,77.36 L473.06,77.36 L473.06,114.96 L438.03,114.96 Z" style="stroke-width: 1; stroke: rgb(74, 74, 74); fill: rgb(74, 144, 226);"/></g><g class="composite-shape"><path class="real" d=" M443.02,82.42 L478.05,82.42 L478.05,120.02 L443.02,120.02 Z" style="stroke-width: 1; stroke: rgb(74, 74, 74); fill: rgb(74, 144, 226);"/></g><g class="composite-shape"><path class="real" d=" M447.32,87.03 L482.35,87.03 L482.35,124.64 L447.32,124.64 Z" style="stroke-width: 1; stroke: rgb(74, 74, 74); fill: rgb(74, 144, 226);"/></g><g class="composite-shape"><path class="real" d=" M452.31,92.09 L487.35,92.09 L487.35,129.69 L452.31,129.69 Z" style="stroke-width: 1; stroke: rgb(74, 74, 74); fill: rgb(74, 144, 226);"/></g><g class="composite-shape"><path class="real" d=" M456.4,97.02 L491.44,97.02 L491.44,134.62 L456.4,134.62 Z" style="stroke-width: 1; stroke: rgb(74, 74, 74); fill: rgb(74, 144, 226);"/></g><g class="composite-shape"><path class="real" d=" M461.4,102.08 L496.43,102.08 L496.43,139.68 L461.4,139.68 Z" style="stroke-width: 1; stroke: rgb(74, 74, 74); fill: rgb(74, 144, 226);"/></g><g class="composite-shape"><path class="real" d=" M465.69,106.69 L500.73,106.69 L500.73,144.3 L465.69,144.3 Z" style="stroke-width: 1; stroke: rgb(74, 74, 74); fill: rgb(74, 144, 226);"/></g><g class="composite-shape"><path class="real" d=" M470.69,111.75 L505.72,111.75 L505.72,149.35 L470.69,149.35 Z" style="stroke-width: 1; stroke: rgb(74, 74, 74); fill: rgb(74, 144, 226);"/></g><g class="composite-shape"><path class="real" d=" M475.82,116.79 L510.85,116.79 L510.85,154.39 L475.82,154.39 Z" style="stroke-width: 1; stroke: rgb(74, 74, 74); fill: rgb(74, 144, 226);"/></g><g class="composite-shape"><path class="real" d=" M480.81,121.85 L515.84,121.85 L515.84,159.45 L480.81,159.45 Z" style="stroke-width: 1; stroke: rgb(74, 74, 74); fill: rgb(74, 144, 226);"/></g><g class="composite-shape"><path class="real" d=" M485.11,126.46 L520.14,126.46 L520.14,164.06 L485.11,164.06 Z" style="stroke-width: 1; stroke: rgb(74, 74, 74); fill: rgb(74, 144, 226);"/></g><g class="composite-shape"><path class="real" d=" M490.1,131.52 L525.14,131.52 L525.14,169.12 L490.1,169.12 Z" style="stroke-width: 1; stroke: rgb(74, 74, 74); fill: rgb(74, 144, 226);"/></g><g class="arrow-line"><path class="connection real" stroke-dasharray="1.125 3.35" d="  M394.34,136.26 L498.02,163.04" style="stroke: rgb(0, 0, 0); stroke-width: 1; fill: none;"/></g><g class="arrow-line"><path class="connection real" stroke-dasharray="1.125 3.35" d="  M394.34,116.19 L498.02,163.04" style="stroke: rgb(0, 0, 0); stroke-width: 1; fill: none;"/></g><g class="composite-shape"><path class="real" d=" M515.18,54.35 L541.74,54.35 L541.74,81.81 L515.18,81.81 Z" style="stroke-width: 1; stroke: rgb(74, 74, 74); fill: rgb(74, 144, 226);"/></g><g class="composite-shape"><path class="real" d=" M517.68,56.94 L544.24,56.94 L544.24,84.4 L517.68,84.4 Z" style="stroke-width: 1; stroke: rgb(74, 74, 74); fill: rgb(74, 144, 226);"/></g><g class="composite-shape"><path class="real" d=" M520.18,59.53 L546.75,59.53 L546.75,86.99 L520.18,86.99 Z" style="stroke-width: 1; stroke: rgb(74, 74, 74); fill: rgb(74, 144, 226);"/></g><g class="composite-shape"><path class="real" d=" M522.24,61.89 L548.81,61.89 L548.81,89.35 L522.24,89.35 Z" style="stroke-width: 1; stroke: rgb(74, 74, 74); fill: rgb(74, 144, 226);"/></g><g class="composite-shape"><path class="real" d=" M524.3,64.47 L550.87,64.47 L550.87,91.94 L524.3,91.94 Z" style="stroke-width: 1; stroke: rgb(74, 74, 74); fill: rgb(74, 144, 226);"/></g><g class="composite-shape"><path class="real" d=" M526.8,67.06 L553.37,67.06 L553.37,94.52 L526.8,94.52 Z" style="stroke-width: 1; stroke: rgb(74, 74, 74); fill: rgb(74, 144, 226);"/></g><g class="composite-shape"><path class="real" d=" M529.31,69.65 L555.87,69.65 L555.87,97.11 L529.31,97.11 Z" style="stroke-width: 1; stroke: rgb(74, 74, 74); fill: rgb(74, 144, 226);"/></g><g class="composite-shape"><path class="real" d=" M531.81,72.47 L558.38,72.47 L558.38,99.93 L531.81,99.93 Z" style="stroke-width: 1; stroke: rgb(74, 74, 74); fill: rgb(74, 144, 226);"/></g><g class="composite-shape"><path class="real" d=" M533.87,75.06 L560.43,75.06 L560.43,102.52 L533.87,102.52 Z" style="stroke-width: 1; stroke: rgb(74, 74, 74); fill: rgb(74, 144, 226);"/></g><g class="composite-shape"><path class="real" d=" M524.3,64.47 L550.87,64.47 L550.87,91.94 L524.3,91.94 Z" style="stroke-width: 1; stroke: rgb(74, 74, 74); fill: rgb(74, 144, 226);"/></g><g class="composite-shape"><path class="real" d=" M526.8,67.06 L553.37,67.06 L553.37,94.52 L526.8,94.52 Z" style="stroke-width: 1; stroke: rgb(74, 74, 74); fill: rgb(74, 144, 226);"/></g><g class="composite-shape"><path class="real" d=" M529.31,69.65 L555.87,69.65 L555.87,97.11 L529.31,97.11 Z" style="stroke-width: 1; stroke: rgb(74, 74, 74); fill: rgb(74, 144, 226);"/></g><g class="composite-shape"><path class="real" d=" M531.81,72.47 L558.38,72.47 L558.38,99.93 L531.81,99.93 Z" style="stroke-width: 1; stroke: rgb(74, 74, 74); fill: rgb(74, 144, 226);"/></g><g class="composite-shape"><path class="real" d=" M533.87,75.06 L560.43,75.06 L560.43,102.52 L533.87,102.52 Z" style="stroke-width: 1; stroke: rgb(74, 74, 74); fill: rgb(74, 144, 226);"/></g><g class="composite-shape"><path class="real" d=" M536.09,77.59 L562.66,77.59 L562.66,105.05 L536.09,105.05 Z" style="stroke-width: 1; stroke: rgb(74, 74, 74); fill: rgb(74, 144, 226);"/></g><g class="composite-shape"><path class="real" d=" M538.6,80.17 L565.16,80.17 L565.16,107.64 L538.6,107.64 Z" style="stroke-width: 1; stroke: rgb(74, 74, 74); fill: rgb(74, 144, 226);"/></g><g class="composite-shape"><path class="real" d=" M541.1,82.76 L567.67,82.76 L567.67,110.22 L541.1,110.22 Z" style="stroke-width: 1; stroke: rgb(74, 74, 74); fill: rgb(74, 144, 226);"/></g><g class="composite-shape"><path class="real" d=" M543.16,85.12 L569.73,85.12 L569.73,112.58 L543.16,112.58 Z" style="stroke-width: 1; stroke: rgb(74, 74, 74); fill: rgb(74, 144, 226);"/></g><g class="composite-shape"><path class="real" d=" M545.22,87.71 L571.78,87.71 L571.78,115.17 L545.22,115.17 Z" style="stroke-width: 1; stroke: rgb(74, 74, 74); fill: rgb(74, 144, 226);"/></g><g class="composite-shape"><path class="real" d=" M547.72,90.3 L574.29,90.3 L574.29,117.76 L547.72,117.76 Z" style="stroke-width: 1; stroke: rgb(74, 74, 74); fill: rgb(74, 144, 226);"/></g><g class="composite-shape"><path class="real" d=" M550.23,92.88 L576.79,92.88 L576.79,120.35 L550.23,120.35 Z" style="stroke-width: 1; stroke: rgb(74, 74, 74); fill: rgb(74, 144, 226);"/></g><g class="composite-shape"><path class="real" d=" M552.73,95.7 L579.3,95.7 L579.3,123.16 L552.73,123.16 Z" style="stroke-width: 1; stroke: rgb(74, 74, 74); fill: rgb(74, 144, 226);"/></g><g class="composite-shape"><path class="real" d=" M545.22,87.71 L571.78,87.71 L571.78,115.17 L545.22,115.17 Z" style="stroke-width: 1; stroke: rgb(74, 74, 74); fill: rgb(74, 144, 226);"/></g><g class="composite-shape"><path class="real" d=" M547.72,90.3 L574.29,90.3 L574.29,117.76 L547.72,117.76 Z" style="stroke-width: 1; stroke: rgb(74, 74, 74); fill: rgb(74, 144, 226);"/></g><g class="composite-shape"><path class="real" d=" M550.23,92.88 L576.79,92.88 L576.79,120.35 L550.23,120.35 Z" style="stroke-width: 1; stroke: rgb(74, 74, 74); fill: rgb(74, 144, 226);"/></g><g class="composite-shape"><path class="real" d=" M552.73,95.7 L579.3,95.7 L579.3,123.16 L552.73,123.16 Z" style="stroke-width: 1; stroke: rgb(74, 74, 74); fill: rgb(74, 144, 226);"/></g><g class="composite-shape"><path class="real" d=" M555.05,98.61 L581.61,98.61 L581.61,126.08 L555.05,126.08 Z" style="stroke-width: 1; stroke: rgb(74, 74, 74); fill: rgb(74, 144, 226);"/></g><g class="composite-shape"><path class="real" d=" M557.55,101.2 L584.11,101.2 L584.11,128.66 L557.55,128.66 Z" style="stroke-width: 1; stroke: rgb(74, 74, 74); fill: rgb(74, 144, 226);"/></g><g class="composite-shape"><path class="real" d=" M560.05,103.79 L586.62,103.79 L586.62,131.25 L560.05,131.25 Z" style="stroke-width: 1; stroke: rgb(74, 74, 74); fill: rgb(74, 144, 226);"/></g><g class="composite-shape"><path class="real" d=" M562.11,106.15 L588.68,106.15 L588.68,133.61 L562.11,133.61 Z" style="stroke-width: 1; stroke: rgb(74, 74, 74); fill: rgb(74, 144, 226);"/></g><g class="composite-shape"><path class="real" d=" M564.17,108.74 L590.74,108.74 L590.74,136.2 L564.17,136.2 Z" style="stroke-width: 1; stroke: rgb(74, 74, 74); fill: rgb(74, 144, 226);"/></g><g class="composite-shape"><path class="real" d=" M566.67,111.32 L593.24,111.32 L593.24,138.79 L566.67,138.79 Z" style="stroke-width: 1; stroke: rgb(74, 74, 74); fill: rgb(74, 144, 226);"/></g><g class="composite-shape"><path class="real" d=" M569.18,113.91 L595.74,113.91 L595.74,141.37 L569.18,141.37 Z" style="stroke-width: 1; stroke: rgb(74, 74, 74); fill: rgb(74, 144, 226);"/></g><g class="composite-shape"><path class="real" d=" M571.68,116.73 L598.25,116.73 L598.25,144.19 L571.68,144.19 Z" style="stroke-width: 1; stroke: rgb(74, 74, 74); fill: rgb(74, 144, 226);"/></g><g class="composite-shape"><path class="real" d=" M573.74,119.32 L600.3,119.32 L600.3,146.78 L573.74,146.78 Z" style="stroke-width: 1; stroke: rgb(74, 74, 74); fill: rgb(74, 144, 226);"/></g><g class="composite-shape"><path class="real" d=" M564.17,108.74 L590.74,108.74 L590.74,136.2 L564.17,136.2 Z" style="stroke-width: 1; stroke: rgb(74, 74, 74); fill: rgb(74, 144, 226);"/></g><g class="composite-shape"><path class="real" d=" M566.67,111.32 L593.24,111.32 L593.24,138.79 L566.67,138.79 Z" style="stroke-width: 1; stroke: rgb(74, 74, 74); fill: rgb(74, 144, 226);"/></g><g class="composite-shape"><path class="real" d=" M569.18,113.91 L595.74,113.91 L595.74,141.37 L569.18,141.37 Z" style="stroke-width: 1; stroke: rgb(74, 74, 74); fill: rgb(74, 144, 226);"/></g><g class="composite-shape"><path class="real" d=" M571.68,116.73 L598.25,116.73 L598.25,144.19 L571.68,144.19 Z" style="stroke-width: 1; stroke: rgb(74, 74, 74); fill: rgb(74, 144, 226);"/></g><g class="composite-shape"><path class="real" d=" M573.74,119.32 L600.3,119.32 L600.3,146.78 L573.74,146.78 Z" style="stroke-width: 1; stroke: rgb(74, 74, 74); fill: rgb(74, 144, 226);"/></g><g class="composite-shape"><path class="real" d=" M575.96,121.85 L602.53,121.85 L602.53,149.31 L575.96,149.31 Z" style="stroke-width: 1; stroke: rgb(74, 74, 74); fill: rgb(74, 144, 226);"/></g><g class="composite-shape"><path class="real" d=" M578.47,124.44 L605.03,124.44 L605.03,151.9 L578.47,151.9 Z" style="stroke-width: 1; stroke: rgb(74, 74, 74); fill: rgb(74, 144, 226);"/></g><g class="composite-shape"><path class="real" d=" M580.97,127.02 L607.54,127.02 L607.54,154.49 L580.97,154.49 Z" style="stroke-width: 1; stroke: rgb(74, 74, 74); fill: rgb(74, 144, 226);"/></g><g class="composite-shape"><path class="real" d=" M583.03,129.38 L609.6,129.38 L609.6,156.84 L583.03,156.84 Z" style="stroke-width: 1; stroke: rgb(74, 74, 74); fill: rgb(74, 144, 226);"/></g><g class="composite-shape"><path class="real" d=" M585.09,131.97 L611.65,131.97 L611.65,159.43 L585.09,159.43 Z" style="stroke-width: 1; stroke: rgb(74, 74, 74); fill: rgb(74, 144, 226);"/></g><g class="composite-shape"><path class="real" d=" M587.59,134.56 L614.16,134.56 L614.16,162.02 L587.59,162.02 Z" style="stroke-width: 1; stroke: rgb(74, 74, 74); fill: rgb(74, 144, 226);"/></g><g class="composite-shape"><path class="real" d=" M590.1,137.15 L616.66,137.15 L616.66,164.61 L590.1,164.61 Z" style="stroke-width: 1; stroke: rgb(74, 74, 74); fill: rgb(74, 144, 226);"/></g><g class="composite-shape"><path class="real" d=" M592.6,139.96 L619.17,139.96 L619.17,167.42 L592.6,167.42 Z" style="stroke-width: 1; stroke: rgb(74, 74, 74); fill: rgb(74, 144, 226);"/></g><g class="composite-shape"><path class="real" d=" M585.09,131.97 L611.65,131.97 L611.65,159.43 L585.09,159.43 Z" style="stroke-width: 1; stroke: rgb(74, 74, 74); fill: rgb(74, 144, 226);"/></g><g class="composite-shape"><path class="real" d=" M587.59,134.56 L614.16,134.56 L614.16,162.02 L587.59,162.02 Z" style="stroke-width: 1; stroke: rgb(74, 74, 74); fill: rgb(74, 144, 226);"/></g><g class="composite-shape"><path class="real" d=" M590.1,137.15 L616.66,137.15 L616.66,164.61 L590.1,164.61 Z" style="stroke-width: 1; stroke: rgb(74, 74, 74); fill: rgb(74, 144, 226);"/></g><g class="composite-shape"><path class="real" d=" M592.6,139.96 L619.17,139.96 L619.17,167.42 L592.6,167.42 Z" style="stroke-width: 1; stroke: rgb(74, 74, 74); fill: rgb(74, 144, 226);"/></g><g class="composite-shape"><path class="real" d=" M595.61,142.88 L622.17,142.88 L622.17,170.34 L595.61,170.34 Z" style="stroke-width: 1; stroke: rgb(74, 74, 74); fill: rgb(74, 144, 226);"/></g><g class="composite-shape"><path class="real" d=" M598.11,145.46 L624.68,145.46 L624.68,172.93 L598.11,172.93 Z" style="stroke-width: 1; stroke: rgb(74, 74, 74); fill: rgb(74, 144, 226);"/></g><g class="composite-shape"><path class="real" d=" M600.62,148.05 L627.18,148.05 L627.18,175.51 L600.62,175.51 Z" style="stroke-width: 1; stroke: rgb(74, 74, 74); fill: rgb(74, 144, 226);"/></g><g class="composite-shape"><path class="real" d=" M602.67,150.41 L629.24,150.41 L629.24,177.87 L602.67,177.87 Z" style="stroke-width: 1; stroke: rgb(74, 74, 74); fill: rgb(74, 144, 226);"/></g><g class="composite-shape"><path class="real" d=" M604.73,153 L631.3,153 L631.3,180.46 L604.73,180.46 Z" style="stroke-width: 1; stroke: rgb(74, 74, 74); fill: rgb(74, 144, 226);"/></g><g class="composite-shape"><path class="real" d=" M607.24,155.59 L633.8,155.59 L633.8,183.05 L607.24,183.05 Z" style="stroke-width: 1; stroke: rgb(74, 74, 74); fill: rgb(74, 144, 226);"/></g><g class="composite-shape"><path class="real" d=" M609.74,158.17 L636.31,158.17 L636.31,185.63 L609.74,185.63 Z" style="stroke-width: 1; stroke: rgb(74, 74, 74); fill: rgb(74, 144, 226);"/></g><g class="composite-shape"><path class="real" d=" M612.24,160.99 L638.81,160.99 L638.81,188.45 L612.24,188.45 Z" style="stroke-width: 1; stroke: rgb(74, 74, 74); fill: rgb(74, 144, 226);"/></g><g class="composite-shape"><path class="real" d=" M614.3,163.58 L640.87,163.58 L640.87,191.04 L614.3,191.04 Z" style="stroke-width: 1; stroke: rgb(74, 74, 74); fill: rgb(74, 144, 226);"/></g><g class="composite-shape"><path class="real" d=" M604.73,153 L631.3,153 L631.3,180.46 L604.73,180.46 Z" style="stroke-width: 1; stroke: rgb(74, 74, 74); fill: rgb(74, 144, 226);"/></g><g class="composite-shape"><path class="real" d=" M607.24,155.59 L633.8,155.59 L633.8,183.05 L607.24,183.05 Z" style="stroke-width: 1; stroke: rgb(74, 74, 74); fill: rgb(74, 144, 226);"/></g><g class="composite-shape"><path class="real" d=" M609.74,158.17 L636.31,158.17 L636.31,185.63 L609.74,185.63 Z" style="stroke-width: 1; stroke: rgb(74, 74, 74); fill: rgb(74, 144, 226);"/></g><g class="composite-shape"><path class="real" d=" M612.24,160.99 L638.81,160.99 L638.81,188.45 L612.24,188.45 Z" style="stroke-width: 1; stroke: rgb(74, 74, 74); fill: rgb(74, 144, 226);"/></g><g class="composite-shape"><path class="real" d=" M614.3,163.58 L640.87,163.58 L640.87,191.04 L614.3,191.04 Z" style="stroke-width: 1; stroke: rgb(74, 74, 74); fill: rgb(74, 144, 226);"/></g><g class="composite-shape"><path class="real" d=" M616.53,166.11 L643.09,166.11 L643.09,193.57 L616.53,193.57 Z" style="stroke-width: 1; stroke: rgb(74, 74, 74); fill: rgb(74, 144, 226);"/></g><g class="composite-shape"><path class="real" d=" M556.32,24.32 L584.81,18.81 L745.34,190.34 L716.85,195.86 Z" style="stroke-width: 3; stroke: rgb(128, 128, 128); fill: rgba(245, 166, 35, 0.75);"/></g><g class="arrow-line"><path class="connection real" stroke-dasharray="" d="  M30.38,115.79 L77.9,164.72" style="stroke: rgba(128, 128, 128, 0.5); stroke-width: 1; fill: none;"/></g><g class="arrow-line"><path class="connection real" stroke-dasharray="" d="  M18.09,125.51 L44.48,200.58" style="stroke: rgba(128, 128, 128, 0.5); stroke-width: 1; fill: none;"/></g><g class="arrow-line"><path class="connection real" stroke-dasharray="" d="  M310.89,15.55 C271.91,5.01 289.94,25.14 300.57,41.42" style="stroke: rgb(0, 0, 0); stroke-width: 1; fill: none;"/><g stroke="#000" transform="matrix(-0.534057264800589,-0.8454483058790251,0.8454483058790251,-0.534057264800589,301.53681379068223,42.918859165617164)" style="stroke: rgb(0, 0, 0); stroke-width: 1;"><path d=" M10.93,-4.9 Q4.96,-1 0,0 Q4.96,1 10.93,4.9"/></g></g><g class="arrow-line"><path class="connection real" stroke-dasharray="" d="  M126.24,232.77 L126.24,159.74" style="stroke: rgb(0, 0, 0); stroke-width: 2; fill: none;"/><g stroke="none" fill="#000" transform="matrix(3.061616997868383e-16,1,-1,3.061616997868383e-16,126.2446866813182,156.74492984945482)" style="stroke: none; fill: rgb(0, 0, 0); stroke-width: 2;"><path d=" M13.4,-6.43 L0,0 L13.4,6.44 L8.9,0 Z"/></g></g><g class="arrow-line"><path class="connection real" stroke-dasharray="" d="  M289.16,231.69 L289.16,169.52" style="stroke: rgb(0, 0, 0); stroke-width: 2; fill: none;"/><g stroke="none" fill="#000" transform="matrix(3.061616997868383e-16,1,-1,3.061616997868383e-16,289.16368098070404,166.52006950741804)" style="stroke: none; fill: rgb(0, 0, 0); stroke-width: 2;"><path d=" M13.4,-6.43 L0,0 L13.4,6.44 L8.9,0 Z"/></g></g><g class="arrow-line"><path class="connection real" stroke-dasharray="1.125 3.35" d="  M508.3,140.65 L629.81,179.84" style="stroke: rgb(0, 0, 0); stroke-width: 1; fill: none;"/></g><g class="arrow-line"><path class="connection real" stroke-dasharray="1.125 3.35" d="  M508.3,151.5 L631.3,180.46" style="stroke: rgb(0, 0, 0); stroke-width: 1; fill: none;"/></g><g class="arrow-line"><path class="connection real" stroke-dasharray="" d="  M441.22,229.52 L441.22,178.21" style="stroke: rgb(0, 0, 0); stroke-width: 2; fill: none;"/><g stroke="none" fill="#000" transform="matrix(3.061616997868383e-16,1,-1,3.061616997868383e-16,441.22140899346454,175.20908253671854)" style="stroke: none; fill: rgb(0, 0, 0); stroke-width: 2;"><path d=" M13.4,-6.43 L0,0 L13.4,6.44 L8.9,0 Z"/></g></g><g class="arrow-line"><path class="connection real" stroke-dasharray="" d="  M560.7,232.77 L560.7,192.33" style="stroke: rgb(0, 0, 0); stroke-width: 2; fill: none;"/><g stroke="none" fill="#000" transform="matrix(3.061616997868383e-16,1,-1,3.061616997868383e-16,560.6953381463475,189.32872870933204)" style="stroke: none; fill: rgb(0, 0, 0); stroke-width: 2;"><path d=" M13.4,-6.43 L0,0 L13.4,6.44 L8.9,0 Z"/></g></g><g class="arrow-line"><path class="connection real" stroke-dasharray="7.5 6" d="  M584.81,18.81 L742.07,69.84" style="stroke: rgb(0, 0, 0); stroke-width: 2; fill: none;"/></g><g class="arrow-line"><path class="connection real" stroke-dasharray="7.5 6" d="  M745.34,190.34 L742.07,69.84" style="stroke: rgb(0, 0, 0); stroke-width: 2; fill: none;"/></g><g class="composite-shape"><path class="real" d=" M736.7,69.84 C736.7,66.66 739.1,64.08 742.07,64.08 C745.04,64.08 747.45,66.66 747.45,69.84 C747.45,73.03 745.04,75.61 742.07,75.61 C739.1,75.61 736.7,73.03 736.7,69.84 Z" style="stroke-width: 1; stroke: rgb(128, 128, 128); fill: rgb(245, 166, 35);"/></g><g class="composite-shape"><path class="real" d=" M78.88,104.23 L102.78,104.23 L102.78,128.12 L78.88,128.12 Z" style="stroke-width: 3; stroke: none; fill: rgba(208, 2, 27, 0.75);"/></g><g class="composite-shape"><path class="real" d=" M201.7,101.8 L222.95,101.8 L222.95,122.7 L201.7,122.7 Z" style="stroke-width: 3; stroke: none; fill: rgba(208, 2, 27, 0.5);"/></g><g class="composite-shape"><path class="real" d=" M498.33,140.65 L508.3,140.65 L508.3,151.5 L498.33,151.5 Z" style="stroke-width: 3; stroke: none; fill: rgba(208, 2, 27, 0.5);"/></g><g class="arrow-line"><path class="connection real" stroke-dasharray="6 6" d="  M102.78,104.23 L193.97,144.69" style="stroke: rgb(74, 74, 74); stroke-width: 1; fill: none;"/></g><g class="arrow-line"><path class="connection real" stroke-dasharray="6 6" d="  M102.64,126.68 L193.97,144.69" style="stroke: rgb(74, 74, 74); stroke-width: 1; fill: none;"/></g><g class="composite-shape"><path class="real" d=" M373.25,116.19 L394.34,116.19 L394.34,136.26 L373.25,136.26 Z" style="stroke-width: 3; stroke: none; fill: rgba(208, 2, 27, 0.5);"/></g><g class="arrow-line"><path class="connection real" stroke-dasharray="7.5 6" d="  M512.81,22.8 L556.32,24.32" style="stroke: rgb(0, 0, 0); stroke-width: 2; fill: none;"/></g><g class="arrow-line"><path class="connection real" stroke-dasharray="7.5 6" d="  M643.09,193.57 L716.85,195.86" style="stroke: rgb(0, 0, 0); stroke-width: 2; fill: none;"/></g><g class="arrow-line"><path class="connection real" stroke-dasharray="" d="  M691.03,232.77 L691.03,203.19" style="stroke: rgb(0, 0, 0); stroke-width: 2; fill: none;"/><g stroke="none" fill="#000" transform="matrix(3.061616997868383e-16,1,-1,3.061616997868383e-16,691.0305335858562,200.18999499595782)" style="stroke: none; fill: rgb(0, 0, 0); stroke-width: 2;"><path d=" M13.4,-6.43 L0,0 L13.4,6.44 L8.9,0 Z"/></g></g><g class="intersections-group"><g style="stroke: rgb(0, 0, 0); stroke-width: 1; fill: none;"/></g></g><g/><g/><!-- react-empty: 207175 --></svg>
        <svg xmlns="http://www.w3.org/2000/svg" width="760" height="267" style="width:760px;height:267px;font-family:Asana-Math, Asana;background:transparent;"><g><g><text x="317.140625" y="9.84375" style="white-space:pre;stroke:none;fill:rgb(0, 0, 0);font-size:16.2px;font-family:Arial, Helvetica, sans-serif;font-weight:400;dominant-baseline:text-before-edge;text-decoration:none solid rgb(0, 0, 0);">feature maps</text></g></g><g><g><text x="6.5234375" y="23.625" style="white-space:pre;stroke:none;fill:rgb(0, 0, 0);font-size:16.2px;font-family:Arial, Helvetica, sans-serif;font-weight:400;dominant-baseline:text-before-edge;text-decoration:none solid rgb(0, 0, 0);">input lattice</text></g></g><g><g><text x="91.6015625" y="233.546875" style="white-space:pre;stroke:none;fill:rgb(0, 0, 0);font-size:15px;font-family:Arial, Helvetica, sans-serif;font-weight:400;dominant-baseline:text-before-edge;text-decoration:none solid rgb(0, 0, 0);">convolutions</text></g></g><g><g><text x="251.390625" y="232.453125" style="white-space:pre;stroke:none;fill:rgb(0, 0, 0);font-size:15px;font-family:Arial, Helvetica, sans-serif;font-weight:400;dominant-baseline:text-before-edge;text-decoration:none solid rgb(0, 0, 0);">subsampling</text></g></g><g><g><text x="403.3203125" y="232.453125" style="white-space:pre;stroke:none;fill:rgb(0, 0, 0);font-size:15px;font-family:Arial, Helvetica, sans-serif;font-weight:400;dominant-baseline:text-before-edge;text-decoration:none solid rgb(0, 0, 0);">convolutions</text></g></g><g><g><text x="522.921875" y="233.546875" style="white-space:pre;stroke:none;fill:rgb(0, 0, 0);font-size:15px;font-family:Arial, Helvetica, sans-serif;font-weight:400;dominant-baseline:text-before-edge;text-decoration:none solid rgb(0, 0, 0);">subsampling</text></g></g><g><g><text x="648.71875" y="232.453125" style="white-space:pre;stroke:none;fill:rgb(0, 0, 0);font-size:15px;font-family:Arial, Helvetica, sans-serif;font-weight:400;dominant-baseline:text-before-edge;text-decoration:none solid rgb(0, 0, 0);">fully-connected</text></g></g></svg>
</svg>
