<svg xmlns="http://www.w3.org/2000/svg" width="1137" height="464" style="
        width:1137px;
        height:464px;
        background: transparent;
        fill: none;
">
        
        <svg xmlns="http://www.w3.org/2000/svg"><g class="shapes-region" style="stroke: black; fill: none;"><g class="composite-shape"><path class="real" d=" M158,80 C158,67.85 167.85,58 180,58 L246,58 C258.15,58 268,67.85 268,80 L268,335 C268,347.15 258.15,357 246,357 L180,357 C167.85,357 158,347.15 158,335 Z" style="stroke-width: 2; stroke: rgb(0, 0, 0); fill: none; stroke-dasharray: 7.5, 6;"/></g><g class="composite-shape"><path class="real" d=" M176.5,116 C176.5,96.67 192.17,81 211.5,81 C230.83,81 246.5,96.67 246.5,116 C246.5,135.33 230.83,151 211.5,151 C192.17,151 176.5,135.33 176.5,116 Z" style="stroke-width: 2; stroke: rgb(0, 0, 0); fill: none;"/></g><g class="composite-shape"><path class="real" d=" M176,207.5 C176,188.17 191.67,172.5 211,172.5 C230.33,172.5 246,188.17 246,207.5 C246,226.83 230.33,242.5 211,242.5 C191.67,242.5 176,226.83 176,207.5 Z" style="stroke-width: 2; stroke: rgb(0, 0, 0); fill: none;"/></g><g class="arrow-line"><path class="connection real" stroke-dasharray="" d="  M246.5,116 L298,116" style="stroke: rgb(0, 0, 0); stroke-width: 3; fill: none;"/><g stroke="#000" transform="matrix(-1,1.2246467991473532e-16,-1.2246467991473532e-16,-1,302,115.99999999999999)" style="stroke: rgb(0, 0, 0); stroke-width: 3;"><path d=" M17.49,-5.26 Q7.94,-0.72 0,0 Q7.94,0.72 17.49,5.26"/></g></g><g class="composite-shape"><path class="real" d=" M452,35 L522.5,35 L522.5,380 L452,380 Z" style="stroke-width: 2; stroke: rgb(0, 0, 0); fill: none;"/></g><g class="arrow-line"><path class="connection real" stroke-dasharray="" d="  M373,115 L448,115" style="stroke: rgb(0, 0, 0); stroke-width: 3; fill: none;"/><g stroke="#000" transform="matrix(-1,1.2246467991473532e-16,-1.2246467991473532e-16,-1,452,115)" style="stroke: rgb(0, 0, 0); stroke-width: 3;"><path d=" M17.49,-5.26 Q7.94,-0.72 0,0 Q7.94,0.72 17.49,5.26"/></g></g><g class="composite-shape"><path class="real" d=" M565.5,35 L636,35 L636,380 L565.5,380 Z" style="stroke-width: 2; stroke: rgb(0, 0, 0); fill: none;"/></g><g class="arrow-line"><path class="connection real" stroke-dasharray="" d="  M521,207 L563,207" style="stroke: rgb(0, 0, 0); stroke-width: 3; fill: none;"/><g stroke="#000" transform="matrix(-1,1.2246467991473532e-16,-1.2246467991473532e-16,-1,567,207)" style="stroke: rgb(0, 0, 0); stroke-width: 3;"><path d=" M17.49,-5.26 Q7.94,-0.72 0,0 Q7.94,0.72 17.49,5.26"/></g></g><g class="arrow-line"><path class="connection real" stroke-dasharray="" d="  M636,207 C673.51,185.53 652.47,113.81 710.34,110.67" style="stroke: rgb(0, 0, 0); stroke-width: 3; fill: none;"/><g stroke="none" fill="#000" transform="matrix(-0.999988896715596,0.0047123715393743845,-0.0047123715393743845,-0.999988896715596,713.983019696889,110.5674175342341)" style="stroke: none; fill: rgb(0, 0, 0); stroke-width: 3;"><path d=" M14.29,-6.86 L0,0 L14.29,6.86 Z"/></g></g><g class="composite-shape"><path class="real" d=" M731.48,92.83 C731.48,86.29 736.78,81 743.31,81 L808.17,81 C814.71,81 820,86.29 820,92.83 L820,128.3 C820,134.83 814.71,140.13 808.17,140.13 L743.31,140.13 C736.78,140.13 731.48,134.83 731.48,128.3 Z" style="stroke-width: 2; stroke: rgb(0, 0, 0); fill: none;"/></g><g class="composite-shape"><path class="real" d=" M731.48,192.5 C731.48,185.97 736.78,180.68 743.31,180.68 L808.17,180.68 C814.71,180.68 820,185.97 820,192.5 L820,227.98 C820,234.51 814.71,239.8 808.17,239.8 L743.31,239.8 C736.78,239.8 731.48,234.51 731.48,227.98 Z" style="stroke-width: 2; stroke: rgb(0, 0, 0); fill: none;"/></g><g class="composite-shape"><path class="real" d=" M731.48,288.13 C731.48,281.6 736.78,276.3 743.31,276.3 L808.17,276.3 C814.71,276.3 820,281.6 820,288.13 L820,323.6 C820,330.14 814.71,335.43 808.17,335.43 L743.31,335.43 C736.78,335.43 731.48,330.14 731.48,323.6 Z" style="stroke-width: 2; stroke: rgb(0, 0, 0); fill: none;"/></g><g class="arrow-line"><path class="connection real" stroke-dasharray="" d="  M636,207 L710.79,207" style="stroke: rgb(0, 0, 0); stroke-width: 3; fill: none;"/><g stroke="none" fill="#000" transform="matrix(-1,1.2246467991473532e-16,-1.2246467991473532e-16,-1,714.7934083830003,207.00367118148344)" style="stroke: none; fill: rgb(0, 0, 0); stroke-width: 3;"><path d=" M14.29,-6.86 L0,0 L14.29,6.86 Z"/></g></g><g class="arrow-line"><path class="connection real" stroke-dasharray="" d="  M636,207 C675.1,227.94 650.19,301.52 710.2,304.94" style="stroke: rgb(0, 0, 0); stroke-width: 3; fill: none;"/><g stroke="none" fill="#000" transform="matrix(-0.9999691576447897,-0.007853900888711166,0.007853900888711166,-0.9999691576447897,713.9830196968888,305.06070220095546)" style="stroke: none; fill: rgb(0, 0, 0); stroke-width: 3;"><path d=" M14.29,-6.86 L0,0 L14.29,6.86 Z"/></g></g><g class="composite-shape"><path class="real" d=" M303,99.6 C303,92.64 308.64,87 315.6,87 L360.4,87 C367.36,87 373,92.64 373,99.6 L373,137.4 C373,144.36 367.36,150 360.4,150 L315.6,150 C308.64,150 303,144.36 303,137.4 Z" style="stroke-width: 2; stroke: rgb(0, 0, 0); fill: none;"/></g><g class="arrow-line"><path class="connection real" stroke-dasharray="" d="  M245,208 L296.5,208" style="stroke: rgb(0, 0, 0); stroke-width: 3; fill: none;"/><g stroke="#000" transform="matrix(-1,1.2246467991473532e-16,-1.2246467991473532e-16,-1,300.5,208.00000000000003)" style="stroke: rgb(0, 0, 0); stroke-width: 3;"><path d=" M17.49,-5.26 Q7.94,-0.72 0,0 Q7.94,0.72 17.49,5.26"/></g></g><g class="arrow-line"><path class="connection real" stroke-dasharray="" d="  M371.5,207 L448,207" style="stroke: rgb(0, 0, 0); stroke-width: 3; fill: none;"/><g stroke="#000" transform="matrix(-1,1.2246467991473532e-16,-1.2246467991473532e-16,-1,452,207)" style="stroke: rgb(0, 0, 0); stroke-width: 3;"><path d=" M17.49,-5.26 Q7.94,-0.72 0,0 Q7.94,0.72 17.49,5.26"/></g></g><g class="composite-shape"><path class="real" d=" M301.5,191.6 C301.5,184.64 307.14,179 314.1,179 L358.9,179 C365.86,179 371.5,184.64 371.5,191.6 L371.5,229.4 C371.5,236.36 365.86,242 358.9,242 L314.1,242 C307.14,242 301.5,236.36 301.5,229.4 Z" style="stroke-width: 2; stroke: rgb(0, 0, 0); fill: none;"/></g><g class="composite-shape"><path class="real" d=" M913.83,207 C913.83,181.9 934.18,161.55 959.29,161.55 C984.39,161.55 1004.74,181.9 1004.74,207 C1004.74,232.11 984.39,252.46 959.29,252.46 C934.18,252.46 913.83,232.11 913.83,207 Z" style="stroke-width: 2; stroke: rgb(0, 0, 0); fill: none;"/></g><g class="composite-shape"><path class="real" d=" M917.94,207 C917.94,184.12 936.5,165.56 959.38,165.56 C982.27,165.56 1000.83,184.12 1000.83,207 C1000.83,229.89 982.27,248.45 959.38,248.45 C936.5,248.45 917.94,229.89 917.94,207 Z" style="stroke-width: 2; stroke: rgb(0, 0, 0); fill: none;"/></g><g class="arrow-line"><path class="connection real" stroke-dasharray="" d="  M820,311 C884.27,299.55 859.74,255.05 915.88,232.03" style="stroke: rgb(0, 0, 0); stroke-width: 3; fill: none;"/><g stroke="none" fill="#000" transform="matrix(-0.937281989491891,0.34857204732181646,-0.34857204732181646,-0.937281989491891,919.4200081362192,230.64375874323684)" style="stroke: none; fill: rgb(0, 0, 0); stroke-width: 3;"><path d=" M14.29,-6.86 L0,0 L14.29,6.86 Z"/></g></g><g class="arrow-line"><path class="connection real" stroke-dasharray="" d="  M820,207 L909.83,207" style="stroke: rgb(0, 0, 0); stroke-width: 3; fill: none;"/><g stroke="none" fill="#000" transform="matrix(-1,1.2246467991473532e-16,-1.2246467991473532e-16,-1,913.8275078087322,207.00367118148347)" style="stroke: none; fill: rgb(0, 0, 0); stroke-width: 3;"><path d=" M14.29,-6.86 L0,0 L14.29,6.86 Z"/></g></g><g class="arrow-line"><path class="connection real" stroke-dasharray="" d="  M820,104 C873.32,109.29 868.64,161.14 919.48,178.31" style="stroke: rgb(0, 0, 0); stroke-width: 3; fill: none;"/><g stroke="none" fill="#000" transform="matrix(-0.9589188165093672,-0.28368063618138367,0.28368063618138367,-0.9589188165093672,922.6615628806645,179.31914195618532)" style="stroke: none; fill: rgb(0, 0, 0); stroke-width: 3;"><path d=" M14.29,-6.86 L0,0 L14.29,6.86 Z"/></g></g><g class="composite-shape"><path class="real" d=" M714.87,83.63 C714.87,69.47 726.34,58 740.49,58 L817.37,58 C831.53,58 843,69.47 843,83.63 L843,331.37 C843,345.53 831.53,357 817.37,357 L740.49,357 C726.34,357 714.87,345.53 714.87,331.37 Z" style="stroke-width: 2; stroke: rgb(0, 0, 0); fill: none; stroke-dasharray: 7.5, 6;"/></g><g class="composite-shape"><path class="real" d=" M173.5,299 C173.5,279.67 189.17,264 208.5,264 C227.83,264 243.5,279.67 243.5,299 C243.5,318.33 227.83,334 208.5,334 C189.17,334 173.5,318.33 173.5,299 Z" style="stroke-width: 2; stroke: rgb(0, 0, 0); fill: none;"/></g><g class="arrow-line"><path class="connection real" stroke-dasharray="" d="  M243.5,299 L295,299" style="stroke: rgb(0, 0, 0); stroke-width: 3; fill: none;"/><g stroke="#000" transform="matrix(-1,1.2246467991473532e-16,-1.2246467991473532e-16,-1,298.99999999999994,299.00000000000006)" style="stroke: rgb(0, 0, 0); stroke-width: 3;"><path d=" M17.49,-5.26 Q7.94,-0.72 0,0 Q7.94,0.72 17.49,5.26"/></g></g><g class="arrow-line"><path class="connection real" stroke-dasharray="" d="  M370,298 L445,298" style="stroke: rgb(0, 0, 0); stroke-width: 3; fill: none;"/><g stroke="#000" transform="matrix(-1,1.2246467991473532e-16,-1.2246467991473532e-16,-1,448.99999999999994,298.00000000000006)" style="stroke: rgb(0, 0, 0); stroke-width: 3;"><path d=" M17.49,-5.26 Q7.94,-0.72 0,0 Q7.94,0.72 17.49,5.26"/></g></g><g class="composite-shape"><path class="real" d=" M300,282.6 C300,275.64 305.64,270 312.6,270 L357.4,270 C364.36,270 370,275.64 370,282.6 L370,320.4 C370,327.36 364.36,333 357.4,333 L312.6,333 C305.64,333 300,327.36 300,320.4 Z" style="stroke-width: 2; stroke: rgb(0, 0, 0); fill: none;"/></g><g class="intersections-group"><g style="stroke: rgb(0, 0, 0); stroke-width: 1; fill: none;"/></g></g><g/><g/><!-- react-empty: 311668 --></svg>
        <svg xmlns="http://www.w3.org/2000/svg" width="1135" height="462" style="width:1135px;height:462px;font-family:Asana-Math, Asana;background:transparent;"><g><g><g><g><g><g style="transform:matrix(1,0,0,1,202.703125,130.258);"><path d="M9 1C24 -7 40 -11 52 -11C85 -11 124 18 155 65L231 182L242 113C255 28 278 -11 314 -11C336 -11 368 6 400 35L449 79L440 98C404 68 379 53 363 53C348 53 335 63 325 83C316 102 305 139 300 168L282 269L317 318C364 383 391 406 422 406C438 406 450 398 455 383L469 387L484 472C472 479 463 482 454 482C414 482 374 446 312 354L275 299L269 347C257 446 230 482 171 482C145 482 123 474 114 461L56 378L73 368C103 402 123 416 142 416C175 416 197 375 214 277L225 215L185 153C142 86 108 54 80 54C65 54 54 58 52 63L41 91L21 88C21 53 13 27 9 1Z" stroke="rgb(0, 0, 0)" stroke-width="8" fill="rgb(0, 0, 0)" style="transform:matrix(0.035258000000000005,0,0,-0.035258000000000005,0,0);"></path></g></g></g></g></g></g><g><g><g><g><g><g style="transform:matrix(1,0,0,1,201.2109375,221.758);"><path d="M286 646L392 650C454 650 494 641 495 626L503 537L527 537C530 600 537 651 548 689C526 691 498 692 481 692L440 691L275 689L246 689C221 689 181 690 143 691L94 692L91 664L147 662C171 661 182 652 182 635C182 621 178 589 173 559L98 125C81 33 81 32 40 28L4 25L0 -3L34 -2C74 -1 106 0 127 0C145 0 174 -1 213 -2L265 -3L268 25L204 28C177 29 168 37 168 57C168 63 169 74 170 78L206 301L323 301C350 301 381 300 429 298L455 297L474 342L470 349C389 345 329 343 251 343L214 343L260 614C263 630 264 635 269 646Z" stroke="rgb(0, 0, 0)" stroke-width="8" fill="rgb(0, 0, 0)" style="transform:matrix(0.035258000000000005,0,0,-0.035258000000000005,0,0);"></path></g></g></g></g></g></g><g><g><g><g><g><g style="transform:matrix(1,0,0,1,118.109375,219.258);"><path d="M223 -100L223 -108C238 -121 252 -137 269 -149C339 -136 462 -53 464 26C464 56 440 65 415 65C254 65 106 51 118 232C131 426 238 643 453 656C461 672 467 695 473 712L459 712C404 687 341 663 279 663C247 663 196 668 185 705L174 705L135 684L135 665C177 631 233 641 295 643L295 638C162 531 60 360 50 187C39 3 199 4 374 4C389 4 416 2 413 -18C401 -85 296 -117 223 -100Z" stroke="rgb(0, 0, 0)" stroke-width="8" fill="rgb(0, 0, 0)" style="transform:matrix(0.035258000000000005,0,0,-0.035258000000000005,0,0);"></path></g></g></g></g></g></g><g><g><g><g><g><g><g><g><g style="transform:matrix(1,0,0,1,329.203125,136.258);"><path d="M9 1C24 -7 40 -11 52 -11C85 -11 124 18 155 65L231 182L242 113C255 28 278 -11 314 -11C336 -11 368 6 400 35L449 79L440 98C404 68 379 53 363 53C348 53 335 63 325 83C316 102 305 139 300 168L282 269L317 318C364 383 391 406 422 406C438 406 450 398 455 383L469 387L484 472C472 479 463 482 454 482C414 482 374 446 312 354L275 299L269 347C257 446 230 482 171 482C145 482 123 474 114 461L56 378L73 368C103 402 123 416 142 416C175 416 197 375 214 277L225 215L185 153C142 86 108 54 80 54C65 54 54 58 52 63L41 91L21 88C21 53 13 27 9 1Z" stroke="rgb(0, 0, 0)" stroke-width="8" fill="rgb(0, 0, 0)" style="transform:matrix(0.035258000000000005,0,0,-0.035258000000000005,0,0);"></path></g></g></g><svg x="329.203125" style="overflow:visible;" y="94" height="18" width="17.59375"><path d="M0.00,16.04 C 1.10 11.64, 4.40 11.64, 8.80 14.94  S 16.49 13.84, 17.59 11.64" style="fill:none;stroke-width:2px;stroke:rgb(0, 0, 0);"></path></svg></g></g></g></g></g></g><g><g><g><g><g><g style="transform:matrix(1,0,0,1,469.3046875,218.26475);"><path d="M236 722L224 733C179 711 138 697 64 691L60 670L108 670C126 670 142 667 142 647C142 641 142 632 140 622L98 388C78 272 36 80 10 2L17 -9L86 7C94 64 108 164 148 236C193 317 296 414 338 414C349 414 360 407 360 393C360 375 355 342 345 303L294 107C288 85 281 55 281 31C281 6 291 -9 312 -9C344 -9 412 41 471 85L461 103L435 86C412 71 386 56 374 56C367 56 361 65 361 76C361 88 364 101 368 116L432 372C438 398 443 423 443 447C443 464 437 482 411 482C376 482 299 437 231 374C198 343 172 308 144 273L140 275Z" stroke="rgb(0, 0, 0)" stroke-width="8" fill="rgb(0, 0, 0)" style="transform:matrix(0.042296,0,0,-0.042296,0,0);"></path></g><g><g><g><g style="transform:matrix(1,0,0,1,490.3984375,231.63845);"><path d="M418 -3L418 27L366 30C311 33 301 44 301 96L301 700L60 598L67 548L217 614L217 96C217 44 206 33 152 30L96 27L96 -3C250 0 250 0 261 0C292 0 402 -3 418 -3Z" stroke="rgb(0, 0, 0)" stroke-width="8" fill="rgb(0, 0, 0)" style="transform:matrix(0.0296072,0,0,-0.0296072,0,0);"></path></g></g></g></g></g></g></g></g></g><g><g><g><g><g><g style="transform:matrix(1,0,0,1,469.6015625,422.26475);"><path d="M24 388L31 368L63 389C100 412 103 414 110 414C121 414 128 404 128 389C128 338 87 145 46 2L53 -9C78 -2 101 4 123 8C142 134 163 199 209 268C263 352 338 414 383 414C394 414 400 405 400 390C400 372 397 351 389 319L337 107C328 70 324 47 324 31C324 6 335 -9 354 -9C380 -9 416 12 514 85L504 103L478 86C449 67 427 56 417 56C410 56 404 65 404 76C404 81 405 92 406 96L472 372C479 401 483 429 483 446C483 469 472 482 452 482C410 482 341 444 282 389C244 354 216 320 164 247L202 408C206 426 208 438 208 449C208 470 200 482 185 482C164 482 125 460 52 408Z" stroke="rgb(0, 0, 0)" stroke-width="8" fill="rgb(0, 0, 0)" style="transform:matrix(0.042296,0,0,-0.042296,0,0);"></path></g><g><g><g><g style="transform:matrix(1,0,0,1,493.0703125,435.63845);"><path d="M236 722L224 733C179 711 138 697 64 691L60 670L108 670C126 670 142 667 142 647C142 641 142 632 140 622L98 388C78 272 36 80 10 2L17 -9L86 7C94 64 108 164 148 236C193 317 296 414 338 414C349 414 360 407 360 393C360 375 355 342 345 303L294 107C288 85 281 55 281 31C281 6 291 -9 312 -9C344 -9 412 41 471 85L461 103L435 86C412 71 386 56 374 56C367 56 361 65 361 76C361 88 364 101 368 116L432 372C438 398 443 423 443 447C443 464 437 482 411 482C376 482 299 437 231 374C198 343 172 308 144 273L140 275Z" stroke="rgb(0, 0, 0)" stroke-width="8" fill="rgb(0, 0, 0)" style="transform:matrix(0.0296072,0,0,-0.0296072,0,0);"></path></g></g></g></g></g></g></g></g></g><g><g><g><g><g><g style="transform:matrix(1,0,0,1,582.7890625,218.26475);"><path d="M236 722L224 733C179 711 138 697 64 691L60 670L108 670C126 670 142 667 142 647C142 641 142 632 140 622L98 388C78 272 36 80 10 2L17 -9L86 7C94 64 108 164 148 236C193 317 296 414 338 414C349 414 360 407 360 393C360 375 355 342 345 303L294 107C288 85 281 55 281 31C281 6 291 -9 312 -9C344 -9 412 41 471 85L461 103L435 86C412 71 386 56 374 56C367 56 361 65 361 76C361 88 364 101 368 116L432 372C438 398 443 423 443 447C443 464 437 482 411 482C376 482 299 437 231 374C198 343 172 308 144 273L140 275Z" stroke="rgb(0, 0, 0)" stroke-width="8" fill="rgb(0, 0, 0)" style="transform:matrix(0.042296,0,0,-0.042296,0,0);"></path></g><g><g><g><g style="transform:matrix(1,0,0,1,603.8828125,231.63845);"><path d="M16 23L16 -3C203 -3 203 0 239 0C275 0 275 -3 468 -3L468 82C353 77 307 81 122 77L304 270C401 373 431 428 431 503C431 618 353 689 226 689C154 689 105 669 56 619L39 483L68 483L81 529C97 587 133 612 200 612C286 612 341 558 341 473C341 398 299 324 186 204Z" stroke="rgb(0, 0, 0)" stroke-width="8" fill="rgb(0, 0, 0)" style="transform:matrix(0.0296072,0,0,-0.0296072,0,0);"></path></g></g></g></g></g></g></g></g></g><g><g><g><g><g><g style="transform:matrix(1,0,0,1,584.1015625,422.26475);"><path d="M24 388L31 368L63 389C100 412 103 414 110 414C121 414 128 404 128 389C128 338 87 145 46 2L53 -9C78 -2 101 4 123 8C142 134 163 199 209 268C263 352 338 414 383 414C394 414 400 405 400 390C400 372 397 351 389 319L337 107C328 70 324 47 324 31C324 6 335 -9 354 -9C380 -9 416 12 514 85L504 103L478 86C449 67 427 56 417 56C410 56 404 65 404 76C404 81 405 92 406 96L472 372C479 401 483 429 483 446C483 469 472 482 452 482C410 482 341 444 282 389C244 354 216 320 164 247L202 408C206 426 208 438 208 449C208 470 200 482 185 482C164 482 125 460 52 408Z" stroke="rgb(0, 0, 0)" stroke-width="8" fill="rgb(0, 0, 0)" style="transform:matrix(0.042296,0,0,-0.042296,0,0);"></path></g><g><g><g><g style="transform:matrix(1,0,0,1,607.5703125,435.63845);"><path d="M236 722L224 733C179 711 138 697 64 691L60 670L108 670C126 670 142 667 142 647C142 641 142 632 140 622L98 388C78 272 36 80 10 2L17 -9L86 7C94 64 108 164 148 236C193 317 296 414 338 414C349 414 360 407 360 393C360 375 355 342 345 303L294 107C288 85 281 55 281 31C281 6 291 -9 312 -9C344 -9 412 41 471 85L461 103L435 86C412 71 386 56 374 56C367 56 361 65 361 76C361 88 364 101 368 116L432 372C438 398 443 423 443 447C443 464 437 482 411 482C376 482 299 437 231 374C198 343 172 308 144 273L140 275Z" stroke="rgb(0, 0, 0)" stroke-width="8" fill="rgb(0, 0, 0)" style="transform:matrix(0.0296072,0,0,-0.0296072,0,0);"></path></g></g></g></g></g></g></g></g></g><g><g><g><g><g><g style="transform:matrix(1,0,0,1,756.6015625,125.32724999999999);"><path d="M108 471C108 386 146 339 230 319L325 296C379 283 406 248 406 191C406 96 335 30 232 30C178 30 140 42 96 73L96 172L66 172C60 117 53 72 42 20C91 -5 144 -18 197 -18C352 -18 485 99 485 234C485 313 442 355 341 377L276 391C210 405 180 442 180 508C180 595 247 658 339 658C388 658 421 645 451 613L451 537L481 537C485 591 492 629 506 672C461 696 421 706 374 706C250 706 108 614 108 471Z" stroke="rgb(0, 0, 0)" stroke-width="8" fill="rgb(0, 0, 0)" style="transform:matrix(0.042296,0,0,-0.042296,0,0);"></path></g><g><g><g><g style="transform:matrix(1,0,0,1,780.0703125,131.70095);"><path d="M166 420C187 420 203 421 229 424C118 304 76 221 76 121C76 44 122 -11 186 -11C324 -11 477 236 477 384C477 441 451 482 415 482C402 482 390 478 382 470L332 423L343 404C352 410 361 413 370 413C397 413 413 390 413 350C413 202 316 39 228 39C179 39 148 81 148 146C148 251 187 342 285 464L275 482C255 473 242 470 214 470C186 470 144 472 115 475L103 476C97 477 92 477 91 477C79 477 70 475 59 470C45 443 34 407 21 352L43 352L60 394C67 411 87 422 111 422C144 422 128 420 166 420Z" stroke="rgb(0, 0, 0)" stroke-width="8" fill="rgb(0, 0, 0)" style="transform:matrix(0.0296072,0,0,-0.0296072,0,0);"></path></g></g></g></g></g></g></g></g></g><g><g><g><g><g><g style="transform:matrix(1,0,0,1,751.9140625,221.76475);"><path d="M151 -172C151 -95 175 -59 228 -59C257 -59 285 -67 324 -88L469 -164C529 -195 547 -201 587 -201C662 -201 698 -158 708 -61L683 -61C677 -115 655 -140 615 -140C598 -140 579 -135 553 -125L317 -29C292 -19 274 -15 251 -15C177 -15 126 -66 126 -142C126 -144 126 -151 127 -159ZM748 425C748 603 644 706 464 706C227 706 53 523 53 272C53 83 147 -18 323 -18C595 -18 748 207 748 425ZM660 409C660 221 571 24 360 24C216 24 141 110 141 277C141 425 199 664 433 664C549 664 660 610 660 409Z" stroke="rgb(0, 0, 0)" stroke-width="8" fill="rgb(0, 0, 0)" style="transform:matrix(0.042296,0,0,-0.042296,0,0);"></path></g><g><g><g><g style="transform:matrix(1,0,0,1,784.7578125,228.13845);"><path d="M166 420C187 420 203 421 229 424C118 304 76 221 76 121C76 44 122 -11 186 -11C324 -11 477 236 477 384C477 441 451 482 415 482C402 482 390 478 382 470L332 423L343 404C352 410 361 413 370 413C397 413 413 390 413 350C413 202 316 39 228 39C179 39 148 81 148 146C148 251 187 342 285 464L275 482C255 473 242 470 214 470C186 470 144 472 115 475L103 476C97 477 92 477 91 477C79 477 70 475 59 470C45 443 34 407 21 352L43 352L60 394C67 411 87 422 111 422C144 422 128 420 166 420Z" stroke="rgb(0, 0, 0)" stroke-width="8" fill="rgb(0, 0, 0)" style="transform:matrix(0.0296072,0,0,-0.0296072,0,0);"></path></g></g></g></g></g></g></g></g></g><g><g><g><g><g><g style="transform:matrix(1,0,0,1,755.4375,319.811625);"><path d="M390 646L463 646C541 646 577 641 580 629C583 621 585 602 584 592L580 528L608 528L635 692L544 691C456 690 388 689 353 689C316 689 252 690 166 691L71 692L53 528L82 528L97 588C102 610 109 626 115 633C121 640 159 646 196 646L308 646L222 125C206 34 204 31 164 28L113 25L109 -3L166 -2C206 -1 235 0 251 0C270 0 301 -1 340 -2L384 -3L387 25L328 28C302 29 292 37 292 58C292 67 293 74 296 93Z" stroke="rgb(0, 0, 0)" stroke-width="8" fill="rgb(0, 0, 0)" style="transform:matrix(0.042296,0,0,-0.042296,0,0);"></path></g><g><g><g><g style="transform:matrix(1,0,0,1,781.234375,326.185325);"><path d="M166 420C187 420 203 421 229 424C118 304 76 221 76 121C76 44 122 -11 186 -11C324 -11 477 236 477 384C477 441 451 482 415 482C402 482 390 478 382 470L332 423L343 404C352 410 361 413 370 413C397 413 413 390 413 350C413 202 316 39 228 39C179 39 148 81 148 146C148 251 187 342 285 464L275 482C255 473 242 470 214 470C186 470 144 472 115 475L103 476C97 477 92 477 91 477C79 477 70 475 59 470C45 443 34 407 21 352L43 352L60 394C67 411 87 422 111 422C144 422 128 420 166 420Z" stroke="rgb(0, 0, 0)" stroke-width="8" fill="rgb(0, 0, 0)" style="transform:matrix(0.0296072,0,0,-0.0296072,0,0);"></path></g></g></g></g></g></g></g></g></g><g><g><g><g><g><g><g><g><g style="transform:matrix(1,0,0,1,326.7109375,231.758);"><path d="M286 646L392 650C454 650 494 641 495 626L503 537L527 537C530 600 537 651 548 689C526 691 498 692 481 692L440 691L275 689L246 689C221 689 181 690 143 691L94 692L91 664L147 662C171 661 182 652 182 635C182 621 178 589 173 559L98 125C81 33 81 32 40 28L4 25L0 -3L34 -2C74 -1 106 0 127 0C145 0 174 -1 213 -2L265 -3L268 25L204 28C177 29 168 37 168 57C168 63 169 74 170 78L206 301L323 301C350 301 381 300 429 298L455 297L474 342L470 349C389 345 329 343 251 343L214 343L260 614C263 630 264 635 269 646Z" stroke="rgb(0, 0, 0)" stroke-width="8" fill="rgb(0, 0, 0)" style="transform:matrix(0.035258000000000005,0,0,-0.035258000000000005,0,0);"></path></g></g></g><svg x="326.7109375" style="overflow:visible;" y="182.5" height="18" width="19.578125"><path d="M0.00,16.04 C 1.22 11.15, 4.89 11.15, 9.79 14.82  S 18.35 13.59, 19.58 11.15" style="fill:none;stroke-width:2px;stroke:rgb(0, 0, 0);"></path></svg></g></g></g></g></g></g><g><g><g><g><g><g style="transform:matrix(1,0,0,1,925.5625,218.26475);"><path d="M216 327C244 329 274 330 319 330C393 330 420 327 438 318L446 293L451 234L481 234C478 327 478 327 478 345C478 361 478 361 481 461L451 461L446 409C445 400 442 391 438 383C420 375 392 372 326 372C284 372 250 373 216 375L216 642C246 649 264 650 323 650C371 650 427 644 458 636C482 630 485 625 485 602L485 537L520 537C520 597 525 645 536 689C487 691 457 692 414 692L307 691C258 689 223 689 198 689C169 689 169 689 22 692L22 662L70 659C116 656 121 648 121 569L121 120C121 41 116 33 70 30L22 27L22 -3C81 -1 116 0 168 0C220 0 256 -1 315 -3L315 27L267 30C221 33 216 41 216 120ZM1120 0C1127 43 1131 75 1141 172L1109 172C1103 143 1081 62 1075 57C1066 49 979 44 886 44C847 44 807 45 771 47L771 569C771 648 776 656 822 659L870 662L870 692C797 689 775 689 723 689C673 689 649 690 577 692L577 662L625 659C671 656 676 648 676 569L676 95C676 66 667 44 651 36L620 20L620 -3C686 0 693 0 719 0C742 0 859 -3 952 -3C984 -3 984 -3 1120 0Z" stroke="rgb(0, 0, 0)" stroke-width="24" fill="rgb(0, 0, 0)" style="transform:matrix(0.042296,0,0,-0.042296,0,0);"></path></g><g><g><g><g style="transform:matrix(1,0,0,1,974.828125,231.63845);"><path d="M237 -16C473 -16 572 316 576 504C578 618 546 702 419 702C159 702 72 412 69 199C67 80 101 -16 237 -16ZM401 676C536 676 506 491 485 381L169 381C194 485 272 676 401 676ZM253 13C102 13 147 261 163 349L479 349C454 237 396 13 253 13Z" stroke="rgb(0, 0, 0)" stroke-width="24" fill="rgb(0, 0, 0)" style="transform:matrix(0.0296072,0,0,-0.0296072,0,0);"></path></g></g></g></g></g></g></g></g></g><g><g><text x="184.890625" y="367.59375" style="white-space:pre;stroke:none;fill:rgb(0, 0, 0);font-size:25.92px;font-family:Arial, Helvetica, sans-serif;font-weight:400;dominant-baseline:text-before-edge;text-decoration:none solid rgb(0, 0, 0);">input</text></g></g><g><g><text x="742.8828125" y="367.59375" style="white-space:pre;stroke:none;fill:rgb(0, 0, 0);font-size:25.92px;font-family:Arial, Helvetica, sans-serif;font-weight:400;dominant-baseline:text-before-edge;text-decoration:none solid rgb(0, 0, 0);">output</text></g></g><g><g><g><g><g><g style="transform:matrix(1,0,0,1,199.3515625,313.258);"><path d="M63 278L63 281C118 423 114 402 279 408C237 307 190 180 187 71C183 -74 360 -4 411 59L411 65L397 75L397 74C374 56 347 33 318 33C198 33 313 370 326 412C371 413 431 411 476 420L476 463L108 463C81 448 56 310 48 278Z" stroke="rgb(0, 0, 0)" stroke-width="8" fill="rgb(0, 0, 0)" style="transform:matrix(0.035258000000000005,0,0,-0.035258000000000005,0,0);"></path></g></g></g></g></g></g><g><g><g><g><g><g><g><g><g style="transform:matrix(1,0,0,1,325.8515625,319.258);"><path d="M63 278L63 281C118 423 114 402 279 408C237 307 190 180 187 71C183 -74 360 -4 411 59L411 65L397 75L397 74C374 56 347 33 318 33C198 33 313 370 326 412C371 413 431 411 476 420L476 463L108 463C81 448 56 310 48 278Z" stroke="rgb(0, 0, 0)" stroke-width="8" fill="rgb(0, 0, 0)" style="transform:matrix(0.035258000000000005,0,0,-0.035258000000000005,0,0);"></path></g></g></g><svg x="325.8515625" style="overflow:visible;" y="277" height="18" width="18.296875"><path d="M0.00,16.04 C 1.14 11.47, 4.57 11.47, 9.15 14.90  S 17.15 13.75, 18.30 11.47" style="fill:none;stroke-width:2px;stroke:rgb(0, 0, 0);"></path></svg></g></g></g></g></g></g></svg>
</svg>
