<svg xmlns="http://www.w3.org/2000/svg" width="772" height="256" style="
        width:772px;
        height:256px;
        background: transparent;
        fill: none;
">
        
        <svg xmlns="http://www.w3.org/2000/svg" class="role-diagram-draw-area"><g class="shapes-region" style="stroke: black; fill: none;"><g class="arrow-line"><path class="connection real" stroke-dasharray="" d="  M41.09,119.12 L87.9,191.58" style="stroke: rgba(128, 128, 128, 0.5); stroke-width: 1; fill: none;"/></g><g class="composite-shape"><path class="real" d=" M136.24,17.41 L227.84,17.41 L227.84,107.37 L136.24,107.37 Z" style="stroke-width: 1; stroke: rgb(74, 74, 74); fill: rgb(74, 144, 226);"/></g><g class="composite-shape"><path class="real" d=" M152.6,34.96 L244.2,34.96 L244.2,124.92 L152.6,124.92 Z" style="stroke-width: 1; stroke: rgb(74, 74, 74); fill: rgb(74, 144, 226);"/></g><g class="composite-shape"><path class="real" d=" M168.96,52.51 L260.56,52.51 L260.56,142.47 L168.96,142.47 Z" style="stroke-width: 1; stroke: rgb(74, 74, 74); fill: rgb(74, 144, 226);"/></g><g class="composite-shape"><path class="real" d=" M185.32,70.06 L276.92,70.06 L276.92,160.02 L185.32,160.02 Z" style="stroke-width: 1; stroke: rgb(74, 74, 74); fill: rgb(74, 144, 226);"/></g><g class="composite-shape"><path class="real" d=" M17.2,47.44 L112.78,47.44 L112.78,143.01 L17.2,143.01 Z" style="stroke-width: 2; stroke: none; fill: none;"/><path class="real" d=" M29.15,47.44 L29.15,143.01 M41.09,47.44 L41.09,143.01 M53.04,47.44 L53.04,143.01 M64.99,47.44 L64.99,143.01 M76.94,47.44 L76.94,143.01 M88.88,47.44 L88.88,143.01 M100.83,47.44 L100.83,143.01" style="stroke-width: 2; stroke: rgb(0, 0, 0); fill: none;"/><path class="real" d=" M17.2,59.38 L112.78,59.38 M17.2,71.33 L112.78,71.33 M17.2,83.28 L112.78,83.28 M17.2,95.23 L112.78,95.23 M17.2,107.17 L112.78,107.17 M17.2,119.12 L112.78,119.12 M17.2,131.07 L112.78,131.07" style="stroke-width: 2; stroke: rgb(0, 0, 0); fill: none;"/><path class="real" d=" M17.2,47.44 L112.78,47.44 L112.78,143.01 L17.2,143.01 Z" style="stroke-width: 2; stroke: rgb(0, 0, 0); fill: none;"/></g><g class="composite-shape"><path class="real" d=" M29.15,107.17 L41.09,107.17 L41.09,119.12 L29.15,119.12 Z" style="stroke-width: 2; stroke: rgba(126, 211, 33, 0.6); fill: rgba(126, 211, 33, 0.5);"/></g><g class="composite-shape"><path class="real" d=" M288.3,37.29 L371.39,37.29 L371.85,99.99 L288.76,99.99 Z" style="stroke-width: 1; stroke: rgb(74, 74, 74); fill: rgb(74, 144, 226);"/></g><g class="composite-shape"><path class="real" d=" M293.61,43.49 L376.69,43.49 L377.16,106.19 L294.07,106.19 Z" style="stroke-width: 1; stroke: rgb(74, 74, 74); fill: rgb(74, 144, 226);"/></g><g class="composite-shape"><path class="real" d=" M299.75,49.96 L382.84,49.96 L383.3,112.66 L300.21,112.66 Z" style="stroke-width: 1; stroke: rgb(74, 74, 74); fill: rgb(74, 144, 226);"/></g><g class="composite-shape"><path class="real" d=" M305.32,56.12 L388.41,56.12 L388.87,118.81 L305.78,118.81 Z" style="stroke-width: 1; stroke: rgb(74, 74, 74); fill: rgb(74, 144, 226);"/></g><g class="composite-shape"><path class="real" d=" M311.46,62.66 L394.55,62.66 L395.01,125.35 L311.92,125.35 Z" style="stroke-width: 1; stroke: rgb(74, 74, 74); fill: rgb(74, 144, 226);"/></g><g class="composite-shape"><path class="real" d=" M317.71,69.23 L400.8,69.23 L401.26,131.92 L318.17,131.92 Z" style="stroke-width: 1; stroke: rgb(74, 74, 74); fill: rgb(74, 144, 226);"/></g><g class="composite-shape"><path class="real" d=" M323.17,75.73 L406.26,75.73 L406.72,138.42 L323.63,138.42 Z" style="stroke-width: 1; stroke: rgb(74, 74, 74); fill: rgb(74, 144, 226);"/></g><g class="composite-shape"><path class="real" d=" M54.48,155.72 L87.9,155.72 L87.9,191.58 L54.48,191.58 Z" style="stroke-width: 1; stroke: rgb(0, 0, 0); fill: rgba(126, 211, 33, 0.5);"/></g><g class="arrow-line"><path class="connection real" stroke-dasharray="" d="  M69.38,188.18 L77.79,196" style="stroke: rgb(0, 0, 0); stroke-width: 1; fill: none;"/><g stroke="none" fill="rgba(0,0,0,1)" transform="matrix(-0.7323052377541318,-0.6809765331917572,0.6809765331917572,-0.7323052377541318,79.2564100879637,197.36283458770947)" style="stroke: none; fill: rgb(0, 0, 0); stroke-width: 1;"><path d=" M10.72,-5.15 L0,0 L10.72,5.15 L7.12,0 Z"/></g></g><g class="arrow-line"><path class="connection real" stroke-dasharray="" d="  M83.13,176.58 L92.27,169.44" style="stroke: rgb(0, 0, 0); stroke-width: 1; fill: none;"/><g stroke="none" fill="rgba(0,0,0,1)" transform="matrix(-0.7884403743312582,0.6151111900497221,-0.6151111900497221,-0.7884403743312582,93.84599473116916,168.2125886839795)" style="stroke: none; fill: rgb(0, 0, 0); stroke-width: 1;"><path d=" M10.72,-5.15 L0,0 L10.72,5.15 L7.12,0 Z"/></g></g><g class="arrow-line"><path class="connection real" stroke-dasharray="" d="  M73.28,159.43 L67.17,149.39" style="stroke: rgb(0, 0, 0); stroke-width: 1; fill: none;"/><g stroke="none" fill="rgba(0,0,0,1)" transform="matrix(0.5202645699620947,0.8540051388850987,-0.8540051388850987,0.5202645699620947,66.12669759818738,147.68612062201845)" style="stroke: none; fill: rgb(0, 0, 0); stroke-width: 1;"><path d=" M10.72,-5.15 L0,0 L10.72,5.15 L7.12,0 Z"/></g></g><g class="arrow-line"><path class="connection real" stroke-dasharray="" d="  M58.86,171.56 L48.86,177.61" style="stroke: rgb(0, 0, 0); stroke-width: 1; fill: none;"/><g stroke="none" fill="rgba(0,0,0,1)" transform="matrix(0.8555450335836201,-0.517728399366311,0.517728399366311,0.8555450335836201,47.15242044409155,178.6425783163802)" style="stroke: none; fill: rgb(0, 0, 0); stroke-width: 1;"><path d=" M10.72,-5.15 L0,0 L10.72,5.15 L7.12,0 Z"/></g></g><g class="arrow-line"><path class="connection real" stroke-dasharray="" d="  M29.15,107.17 L54.48,155.72" style="stroke: rgba(128, 128, 128, 0.5); stroke-width: 1; fill: none;"/></g><g class="composite-shape"><path class="real" d=" M329.27,82.82 L412.36,82.82 L412.82,145.51 L329.73,145.51 Z" style="stroke-width: 1; stroke: rgb(74, 74, 74); fill: rgb(74, 144, 226);"/></g><g class="composite-shape"><path class="real" d=" M335.65,89.61 L418.74,89.61 L419.2,152.31 L336.11,152.31 Z" style="stroke-width: 1; stroke: rgb(74, 74, 74); fill: rgb(74, 144, 226);"/></g><g class="composite-shape"><path class="real" d=" M341.47,95.91 L424.56,95.91 L425.02,158.61 L341.93,158.61 Z" style="stroke-width: 1; stroke: rgb(74, 74, 74); fill: rgb(74, 144, 226);"/></g><g class="arrow-line"><path class="connection real" stroke-dasharray="6 6" d="  M232.95,92.8 L367.26,148.34" style="stroke: rgb(0, 0, 0); stroke-width: 1; fill: none;"/></g><g class="arrow-line"><path class="connection real" stroke-dasharray="6 6" d="  M232.95,113.7 L367.26,148.34" style="stroke: rgb(0, 0, 0); stroke-width: 1; fill: none;"/></g><g class="composite-shape"><path class="real" d=" M496.24,13.8 L522.81,13.8 L522.81,41.26 L496.24,41.26 Z" style="stroke-width: 1; stroke: rgb(74, 74, 74); fill: rgb(74, 144, 226);"/></g><g class="composite-shape"><path class="real" d=" M498.74,16.39 L525.31,16.39 L525.31,43.85 L498.74,43.85 Z" style="stroke-width: 1; stroke: rgb(74, 74, 74); fill: rgb(74, 144, 226);"/></g><g class="composite-shape"><path class="real" d=" M501.25,19.21 L527.81,19.21 L527.81,46.67 L501.25,46.67 Z" style="stroke-width: 1; stroke: rgb(74, 74, 74); fill: rgb(74, 144, 226);"/></g><g class="composite-shape"><path class="real" d=" M503.31,21.8 L529.87,21.8 L529.87,49.26 L503.31,49.26 Z" style="stroke-width: 1; stroke: rgb(74, 74, 74); fill: rgb(74, 144, 226);"/></g><g class="composite-shape"><path class="real" d=" M496.24,13.8 L522.81,13.8 L522.81,41.26 L496.24,41.26 Z" style="stroke-width: 1; stroke: rgb(74, 74, 74); fill: rgb(74, 144, 226);"/></g><g class="composite-shape"><path class="real" d=" M498.74,16.39 L525.31,16.39 L525.31,43.85 L498.74,43.85 Z" style="stroke-width: 1; stroke: rgb(74, 74, 74); fill: rgb(74, 144, 226);"/></g><g class="composite-shape"><path class="real" d=" M501.25,19.21 L527.81,19.21 L527.81,46.67 L501.25,46.67 Z" style="stroke-width: 1; stroke: rgb(74, 74, 74); fill: rgb(74, 144, 226);"/></g><g class="composite-shape"><path class="real" d=" M503.31,21.8 L529.87,21.8 L529.87,49.26 L503.31,49.26 Z" style="stroke-width: 1; stroke: rgb(74, 74, 74); fill: rgb(74, 144, 226);"/></g><g class="composite-shape"><path class="real" d=" M505.53,24.33 L532.1,24.33 L532.1,51.79 L505.53,51.79 Z" style="stroke-width: 1; stroke: rgb(74, 74, 74); fill: rgb(74, 144, 226);"/></g><g class="composite-shape"><path class="real" d=" M508.03,26.91 L534.6,26.91 L534.6,54.37 L508.03,54.37 Z" style="stroke-width: 1; stroke: rgb(74, 74, 74); fill: rgb(74, 144, 226);"/></g><g class="composite-shape"><path class="real" d=" M510.54,29.5 L537.1,29.5 L537.1,56.96 L510.54,56.96 Z" style="stroke-width: 1; stroke: rgb(74, 74, 74); fill: rgb(74, 144, 226);"/></g><g class="composite-shape"><path class="real" d=" M512.6,31.86 L539.16,31.86 L539.16,59.32 L512.6,59.32 Z" style="stroke-width: 1; stroke: rgb(74, 74, 74); fill: rgb(74, 144, 226);"/></g><g class="composite-shape"><path class="real" d=" M514.66,34.45 L541.22,34.45 L541.22,61.91 L514.66,61.91 Z" style="stroke-width: 1; stroke: rgb(74, 74, 74); fill: rgb(74, 144, 226);"/></g><g class="composite-shape"><path class="real" d=" M517.16,37.04 L543.72,37.04 L543.72,64.5 L517.16,64.5 Z" style="stroke-width: 1; stroke: rgb(74, 74, 74); fill: rgb(74, 144, 226);"/></g><g class="composite-shape"><path class="real" d=" M519.66,39.62 L546.23,39.62 L546.23,67.08 L519.66,67.08 Z" style="stroke-width: 1; stroke: rgb(74, 74, 74); fill: rgb(74, 144, 226);"/></g><g class="composite-shape"><path class="real" d=" M522.17,42.44 L548.73,42.44 L548.73,69.9 L522.17,69.9 Z" style="stroke-width: 1; stroke: rgb(74, 74, 74); fill: rgb(74, 144, 226);"/></g><g class="composite-shape"><path class="real" d=" M514.66,34.45 L541.22,34.45 L541.22,61.91 L514.66,61.91 Z" style="stroke-width: 1; stroke: rgb(74, 74, 74); fill: rgb(74, 144, 226);"/></g><g class="composite-shape"><path class="real" d=" M517.16,37.04 L543.72,37.04 L543.72,64.5 L517.16,64.5 Z" style="stroke-width: 1; stroke: rgb(74, 74, 74); fill: rgb(74, 144, 226);"/></g><g class="composite-shape"><path class="real" d=" M519.66,39.62 L546.23,39.62 L546.23,67.08 L519.66,67.08 Z" style="stroke-width: 1; stroke: rgb(74, 74, 74); fill: rgb(74, 144, 226);"/></g><g class="composite-shape"><path class="real" d=" M522.17,42.44 L548.73,42.44 L548.73,69.9 L522.17,69.9 Z" style="stroke-width: 1; stroke: rgb(74, 74, 74); fill: rgb(74, 144, 226);"/></g><g class="composite-shape"><path class="real" d=" M428.61,48.59 L463.65,48.59 L463.65,86.2 L428.61,86.2 Z" style="stroke-width: 1; stroke: rgb(74, 74, 74); fill: rgb(74, 144, 226);"/></g><g class="composite-shape"><path class="real" d=" M433.61,53.65 L468.64,53.65 L468.64,91.26 L433.61,91.26 Z" style="stroke-width: 1; stroke: rgb(74, 74, 74); fill: rgb(74, 144, 226);"/></g><g class="composite-shape"><path class="real" d=" M437.9,58.27 L472.94,58.27 L472.94,95.87 L437.9,95.87 Z" style="stroke-width: 1; stroke: rgb(74, 74, 74); fill: rgb(74, 144, 226);"/></g><g class="composite-shape"><path class="real" d=" M442.9,63.32 L477.93,63.32 L477.93,100.93 L442.9,100.93 Z" style="stroke-width: 1; stroke: rgb(74, 74, 74); fill: rgb(74, 144, 226);"/></g><g class="composite-shape"><path class="real" d=" M448.03,68.36 L483.06,68.36 L483.06,105.96 L448.03,105.96 Z" style="stroke-width: 1; stroke: rgb(74, 74, 74); fill: rgb(74, 144, 226);"/></g><g class="composite-shape"><path class="real" d=" M453.02,73.42 L488.05,73.42 L488.05,111.02 L453.02,111.02 Z" style="stroke-width: 1; stroke: rgb(74, 74, 74); fill: rgb(74, 144, 226);"/></g><g class="composite-shape"><path class="real" d=" M457.32,78.03 L492.35,78.03 L492.35,115.64 L457.32,115.64 Z" style="stroke-width: 1; stroke: rgb(74, 74, 74); fill: rgb(74, 144, 226);"/></g><g class="composite-shape"><path class="real" d=" M462.31,83.09 L497.35,83.09 L497.35,120.69 L462.31,120.69 Z" style="stroke-width: 1; stroke: rgb(74, 74, 74); fill: rgb(74, 144, 226);"/></g><g class="composite-shape"><path class="real" d=" M466.4,88.02 L501.44,88.02 L501.44,125.62 L466.4,125.62 Z" style="stroke-width: 1; stroke: rgb(74, 74, 74); fill: rgb(74, 144, 226);"/></g><g class="composite-shape"><path class="real" d=" M471.4,93.08 L506.43,93.08 L506.43,130.68 L471.4,130.68 Z" style="stroke-width: 1; stroke: rgb(74, 74, 74); fill: rgb(74, 144, 226);"/></g><g class="composite-shape"><path class="real" d=" M475.69,97.69 L510.73,97.69 L510.73,135.3 L475.69,135.3 Z" style="stroke-width: 1; stroke: rgb(74, 74, 74); fill: rgb(74, 144, 226);"/></g><g class="composite-shape"><path class="real" d=" M480.69,102.75 L515.72,102.75 L515.72,140.35 L480.69,140.35 Z" style="stroke-width: 1; stroke: rgb(74, 74, 74); fill: rgb(74, 144, 226);"/></g><g class="composite-shape"><path class="real" d=" M485.82,107.79 L520.85,107.79 L520.85,145.39 L485.82,145.39 Z" style="stroke-width: 1; stroke: rgb(74, 74, 74); fill: rgb(74, 144, 226);"/></g><g class="composite-shape"><path class="real" d=" M490.81,112.85 L525.84,112.85 L525.84,150.45 L490.81,150.45 Z" style="stroke-width: 1; stroke: rgb(74, 74, 74); fill: rgb(74, 144, 226);"/></g><g class="composite-shape"><path class="real" d=" M495.11,117.46 L530.14,117.46 L530.14,155.06 L495.11,155.06 Z" style="stroke-width: 1; stroke: rgb(74, 74, 74); fill: rgb(74, 144, 226);"/></g><g class="composite-shape"><path class="real" d=" M500.1,122.52 L535.14,122.52 L535.14,160.12 L500.1,160.12 Z" style="stroke-width: 1; stroke: rgb(74, 74, 74); fill: rgb(74, 144, 226);"/></g><g class="arrow-line"><path class="connection real" stroke-dasharray="1.125 3.35" d="  M404.34,127.26 L508.02,154.04" style="stroke: rgb(0, 0, 0); stroke-width: 1; fill: none;"/></g><g class="arrow-line"><path class="connection real" stroke-dasharray="1.125 3.35" d="  M404.34,107.19 L508.02,154.04" style="stroke: rgb(0, 0, 0); stroke-width: 1; fill: none;"/></g><g class="composite-shape"><path class="real" d=" M525.18,45.35 L551.74,45.35 L551.74,72.81 L525.18,72.81 Z" style="stroke-width: 1; stroke: rgb(74, 74, 74); fill: rgb(74, 144, 226);"/></g><g class="composite-shape"><path class="real" d=" M527.68,47.94 L554.24,47.94 L554.24,75.4 L527.68,75.4 Z" style="stroke-width: 1; stroke: rgb(74, 74, 74); fill: rgb(74, 144, 226);"/></g><g class="composite-shape"><path class="real" d=" M530.18,50.53 L556.75,50.53 L556.75,77.99 L530.18,77.99 Z" style="stroke-width: 1; stroke: rgb(74, 74, 74); fill: rgb(74, 144, 226);"/></g><g class="composite-shape"><path class="real" d=" M532.24,52.89 L558.81,52.89 L558.81,80.35 L532.24,80.35 Z" style="stroke-width: 1; stroke: rgb(74, 74, 74); fill: rgb(74, 144, 226);"/></g><g class="composite-shape"><path class="real" d=" M534.3,55.47 L560.87,55.47 L560.87,82.94 L534.3,82.94 Z" style="stroke-width: 1; stroke: rgb(74, 74, 74); fill: rgb(74, 144, 226);"/></g><g class="composite-shape"><path class="real" d=" M536.8,58.06 L563.37,58.06 L563.37,85.52 L536.8,85.52 Z" style="stroke-width: 1; stroke: rgb(74, 74, 74); fill: rgb(74, 144, 226);"/></g><g class="composite-shape"><path class="real" d=" M539.31,60.65 L565.87,60.65 L565.87,88.11 L539.31,88.11 Z" style="stroke-width: 1; stroke: rgb(74, 74, 74); fill: rgb(74, 144, 226);"/></g><g class="composite-shape"><path class="real" d=" M541.81,63.47 L568.38,63.47 L568.38,90.93 L541.81,90.93 Z" style="stroke-width: 1; stroke: rgb(74, 74, 74); fill: rgb(74, 144, 226);"/></g><g class="composite-shape"><path class="real" d=" M543.87,66.06 L570.43,66.06 L570.43,93.52 L543.87,93.52 Z" style="stroke-width: 1; stroke: rgb(74, 74, 74); fill: rgb(74, 144, 226);"/></g><g class="composite-shape"><path class="real" d=" M534.3,55.47 L560.87,55.47 L560.87,82.94 L534.3,82.94 Z" style="stroke-width: 1; stroke: rgb(74, 74, 74); fill: rgb(74, 144, 226);"/></g><g class="composite-shape"><path class="real" d=" M536.8,58.06 L563.37,58.06 L563.37,85.52 L536.8,85.52 Z" style="stroke-width: 1; stroke: rgb(74, 74, 74); fill: rgb(74, 144, 226);"/></g><g class="composite-shape"><path class="real" d=" M539.31,60.65 L565.87,60.65 L565.87,88.11 L539.31,88.11 Z" style="stroke-width: 1; stroke: rgb(74, 74, 74); fill: rgb(74, 144, 226);"/></g><g class="composite-shape"><path class="real" d=" M541.81,63.47 L568.38,63.47 L568.38,90.93 L541.81,90.93 Z" style="stroke-width: 1; stroke: rgb(74, 74, 74); fill: rgb(74, 144, 226);"/></g><g class="composite-shape"><path class="real" d=" M543.87,66.06 L570.43,66.06 L570.43,93.52 L543.87,93.52 Z" style="stroke-width: 1; stroke: rgb(74, 74, 74); fill: rgb(74, 144, 226);"/></g><g class="composite-shape"><path class="real" d=" M546.09,68.59 L572.66,68.59 L572.66,96.05 L546.09,96.05 Z" style="stroke-width: 1; stroke: rgb(74, 74, 74); fill: rgb(74, 144, 226);"/></g><g class="composite-shape"><path class="real" d=" M548.6,71.17 L575.16,71.17 L575.16,98.64 L548.6,98.64 Z" style="stroke-width: 1; stroke: rgb(74, 74, 74); fill: rgb(74, 144, 226);"/></g><g class="composite-shape"><path class="real" d=" M551.1,73.76 L577.67,73.76 L577.67,101.22 L551.1,101.22 Z" style="stroke-width: 1; stroke: rgb(74, 74, 74); fill: rgb(74, 144, 226);"/></g><g class="composite-shape"><path class="real" d=" M553.16,76.12 L579.73,76.12 L579.73,103.58 L553.16,103.58 Z" style="stroke-width: 1; stroke: rgb(74, 74, 74); fill: rgb(74, 144, 226);"/></g><g class="composite-shape"><path class="real" d=" M555.22,78.71 L581.78,78.71 L581.78,106.17 L555.22,106.17 Z" style="stroke-width: 1; stroke: rgb(74, 74, 74); fill: rgb(74, 144, 226);"/></g><g class="composite-shape"><path class="real" d=" M557.72,81.3 L584.29,81.3 L584.29,108.76 L557.72,108.76 Z" style="stroke-width: 1; stroke: rgb(74, 74, 74); fill: rgb(74, 144, 226);"/></g><g class="composite-shape"><path class="real" d=" M560.23,83.88 L586.79,83.88 L586.79,111.35 L560.23,111.35 Z" style="stroke-width: 1; stroke: rgb(74, 74, 74); fill: rgb(74, 144, 226);"/></g><g class="composite-shape"><path class="real" d=" M562.73,86.7 L589.3,86.7 L589.3,114.16 L562.73,114.16 Z" style="stroke-width: 1; stroke: rgb(74, 74, 74); fill: rgb(74, 144, 226);"/></g><g class="composite-shape"><path class="real" d=" M555.22,78.71 L581.78,78.71 L581.78,106.17 L555.22,106.17 Z" style="stroke-width: 1; stroke: rgb(74, 74, 74); fill: rgb(74, 144, 226);"/></g><g class="composite-shape"><path class="real" d=" M557.72,81.3 L584.29,81.3 L584.29,108.76 L557.72,108.76 Z" style="stroke-width: 1; stroke: rgb(74, 74, 74); fill: rgb(74, 144, 226);"/></g><g class="composite-shape"><path class="real" d=" M560.23,83.88 L586.79,83.88 L586.79,111.35 L560.23,111.35 Z" style="stroke-width: 1; stroke: rgb(74, 74, 74); fill: rgb(74, 144, 226);"/></g><g class="composite-shape"><path class="real" d=" M562.73,86.7 L589.3,86.7 L589.3,114.16 L562.73,114.16 Z" style="stroke-width: 1; stroke: rgb(74, 74, 74); fill: rgb(74, 144, 226);"/></g><g class="composite-shape"><path class="real" d=" M565.05,89.61 L591.61,89.61 L591.61,117.08 L565.05,117.08 Z" style="stroke-width: 1; stroke: rgb(74, 74, 74); fill: rgb(74, 144, 226);"/></g><g class="composite-shape"><path class="real" d=" M567.55,92.2 L594.11,92.2 L594.11,119.66 L567.55,119.66 Z" style="stroke-width: 1; stroke: rgb(74, 74, 74); fill: rgb(74, 144, 226);"/></g><g class="composite-shape"><path class="real" d=" M570.05,94.79 L596.62,94.79 L596.62,122.25 L570.05,122.25 Z" style="stroke-width: 1; stroke: rgb(74, 74, 74); fill: rgb(74, 144, 226);"/></g><g class="composite-shape"><path class="real" d=" M572.11,97.15 L598.68,97.15 L598.68,124.61 L572.11,124.61 Z" style="stroke-width: 1; stroke: rgb(74, 74, 74); fill: rgb(74, 144, 226);"/></g><g class="composite-shape"><path class="real" d=" M574.17,99.74 L600.74,99.74 L600.74,127.2 L574.17,127.2 Z" style="stroke-width: 1; stroke: rgb(74, 74, 74); fill: rgb(74, 144, 226);"/></g><g class="composite-shape"><path class="real" d=" M576.67,102.32 L603.24,102.32 L603.24,129.79 L576.67,129.79 Z" style="stroke-width: 1; stroke: rgb(74, 74, 74); fill: rgb(74, 144, 226);"/></g><g class="composite-shape"><path class="real" d=" M579.18,104.91 L605.74,104.91 L605.74,132.37 L579.18,132.37 Z" style="stroke-width: 1; stroke: rgb(74, 74, 74); fill: rgb(74, 144, 226);"/></g><g class="composite-shape"><path class="real" d=" M581.68,107.73 L608.25,107.73 L608.25,135.19 L581.68,135.19 Z" style="stroke-width: 1; stroke: rgb(74, 74, 74); fill: rgb(74, 144, 226);"/></g><g class="composite-shape"><path class="real" d=" M583.74,110.32 L610.3,110.32 L610.3,137.78 L583.74,137.78 Z" style="stroke-width: 1; stroke: rgb(74, 74, 74); fill: rgb(74, 144, 226);"/></g><g class="composite-shape"><path class="real" d=" M574.17,99.74 L600.74,99.74 L600.74,127.2 L574.17,127.2 Z" style="stroke-width: 1; stroke: rgb(74, 74, 74); fill: rgb(74, 144, 226);"/></g><g class="composite-shape"><path class="real" d=" M576.67,102.32 L603.24,102.32 L603.24,129.79 L576.67,129.79 Z" style="stroke-width: 1; stroke: rgb(74, 74, 74); fill: rgb(74, 144, 226);"/></g><g class="composite-shape"><path class="real" d=" M579.18,104.91 L605.74,104.91 L605.74,132.37 L579.18,132.37 Z" style="stroke-width: 1; stroke: rgb(74, 74, 74); fill: rgb(74, 144, 226);"/></g><g class="composite-shape"><path class="real" d=" M581.68,107.73 L608.25,107.73 L608.25,135.19 L581.68,135.19 Z" style="stroke-width: 1; stroke: rgb(74, 74, 74); fill: rgb(74, 144, 226);"/></g><g class="composite-shape"><path class="real" d=" M583.74,110.32 L610.3,110.32 L610.3,137.78 L583.74,137.78 Z" style="stroke-width: 1; stroke: rgb(74, 74, 74); fill: rgb(74, 144, 226);"/></g><g class="composite-shape"><path class="real" d=" M585.96,112.85 L612.53,112.85 L612.53,140.31 L585.96,140.31 Z" style="stroke-width: 1; stroke: rgb(74, 74, 74); fill: rgb(74, 144, 226);"/></g><g class="composite-shape"><path class="real" d=" M588.47,115.44 L615.03,115.44 L615.03,142.9 L588.47,142.9 Z" style="stroke-width: 1; stroke: rgb(74, 74, 74); fill: rgb(74, 144, 226);"/></g><g class="composite-shape"><path class="real" d=" M590.97,118.02 L617.54,118.02 L617.54,145.49 L590.97,145.49 Z" style="stroke-width: 1; stroke: rgb(74, 74, 74); fill: rgb(74, 144, 226);"/></g><g class="composite-shape"><path class="real" d=" M593.03,120.38 L619.6,120.38 L619.6,147.84 L593.03,147.84 Z" style="stroke-width: 1; stroke: rgb(74, 74, 74); fill: rgb(74, 144, 226);"/></g><g class="composite-shape"><path class="real" d=" M595.09,122.97 L621.65,122.97 L621.65,150.43 L595.09,150.43 Z" style="stroke-width: 1; stroke: rgb(74, 74, 74); fill: rgb(74, 144, 226);"/></g><g class="composite-shape"><path class="real" d=" M597.59,125.56 L624.16,125.56 L624.16,153.02 L597.59,153.02 Z" style="stroke-width: 1; stroke: rgb(74, 74, 74); fill: rgb(74, 144, 226);"/></g><g class="composite-shape"><path class="real" d=" M600.1,128.15 L626.66,128.15 L626.66,155.61 L600.1,155.61 Z" style="stroke-width: 1; stroke: rgb(74, 74, 74); fill: rgb(74, 144, 226);"/></g><g class="composite-shape"><path class="real" d=" M602.6,130.96 L629.17,130.96 L629.17,158.42 L602.6,158.42 Z" style="stroke-width: 1; stroke: rgb(74, 74, 74); fill: rgb(74, 144, 226);"/></g><g class="composite-shape"><path class="real" d=" M595.09,122.97 L621.65,122.97 L621.65,150.43 L595.09,150.43 Z" style="stroke-width: 1; stroke: rgb(74, 74, 74); fill: rgb(74, 144, 226);"/></g><g class="composite-shape"><path class="real" d=" M597.59,125.56 L624.16,125.56 L624.16,153.02 L597.59,153.02 Z" style="stroke-width: 1; stroke: rgb(74, 74, 74); fill: rgb(74, 144, 226);"/></g><g class="composite-shape"><path class="real" d=" M600.1,128.15 L626.66,128.15 L626.66,155.61 L600.1,155.61 Z" style="stroke-width: 1; stroke: rgb(74, 74, 74); fill: rgb(74, 144, 226);"/></g><g class="composite-shape"><path class="real" d=" M602.6,130.96 L629.17,130.96 L629.17,158.42 L602.6,158.42 Z" style="stroke-width: 1; stroke: rgb(74, 74, 74); fill: rgb(74, 144, 226);"/></g><g class="composite-shape"><path class="real" d=" M605.61,133.88 L632.17,133.88 L632.17,161.34 L605.61,161.34 Z" style="stroke-width: 1; stroke: rgb(74, 74, 74); fill: rgb(74, 144, 226);"/></g><g class="composite-shape"><path class="real" d=" M608.11,136.46 L634.68,136.46 L634.68,163.93 L608.11,163.93 Z" style="stroke-width: 1; stroke: rgb(74, 74, 74); fill: rgb(74, 144, 226);"/></g><g class="composite-shape"><path class="real" d=" M610.62,139.05 L637.18,139.05 L637.18,166.51 L610.62,166.51 Z" style="stroke-width: 1; stroke: rgb(74, 74, 74); fill: rgb(74, 144, 226);"/></g><g class="composite-shape"><path class="real" d=" M612.67,141.41 L639.24,141.41 L639.24,168.87 L612.67,168.87 Z" style="stroke-width: 1; stroke: rgb(74, 74, 74); fill: rgb(74, 144, 226);"/></g><g class="composite-shape"><path class="real" d=" M614.73,144 L641.3,144 L641.3,171.46 L614.73,171.46 Z" style="stroke-width: 1; stroke: rgb(74, 74, 74); fill: rgb(74, 144, 226);"/></g><g class="composite-shape"><path class="real" d=" M617.24,146.59 L643.8,146.59 L643.8,174.05 L617.24,174.05 Z" style="stroke-width: 1; stroke: rgb(74, 74, 74); fill: rgb(74, 144, 226);"/></g><g class="composite-shape"><path class="real" d=" M619.74,149.17 L646.31,149.17 L646.31,176.63 L619.74,176.63 Z" style="stroke-width: 1; stroke: rgb(74, 74, 74); fill: rgb(74, 144, 226);"/></g><g class="composite-shape"><path class="real" d=" M622.24,151.99 L648.81,151.99 L648.81,179.45 L622.24,179.45 Z" style="stroke-width: 1; stroke: rgb(74, 74, 74); fill: rgb(74, 144, 226);"/></g><g class="composite-shape"><path class="real" d=" M624.3,154.58 L650.87,154.58 L650.87,182.04 L624.3,182.04 Z" style="stroke-width: 1; stroke: rgb(74, 74, 74); fill: rgb(74, 144, 226);"/></g><g class="composite-shape"><path class="real" d=" M614.73,144 L641.3,144 L641.3,171.46 L614.73,171.46 Z" style="stroke-width: 1; stroke: rgb(74, 74, 74); fill: rgb(74, 144, 226);"/></g><g class="composite-shape"><path class="real" d=" M617.24,146.59 L643.8,146.59 L643.8,174.05 L617.24,174.05 Z" style="stroke-width: 1; stroke: rgb(74, 74, 74); fill: rgb(74, 144, 226);"/></g><g class="composite-shape"><path class="real" d=" M619.74,149.17 L646.31,149.17 L646.31,176.63 L619.74,176.63 Z" style="stroke-width: 1; stroke: rgb(74, 74, 74); fill: rgb(74, 144, 226);"/></g><g class="composite-shape"><path class="real" d=" M622.24,151.99 L648.81,151.99 L648.81,179.45 L622.24,179.45 Z" style="stroke-width: 1; stroke: rgb(74, 74, 74); fill: rgb(74, 144, 226);"/></g><g class="composite-shape"><path class="real" d=" M624.3,154.58 L650.87,154.58 L650.87,182.04 L624.3,182.04 Z" style="stroke-width: 1; stroke: rgb(74, 74, 74); fill: rgb(74, 144, 226);"/></g><g class="composite-shape"><path class="real" d=" M626.53,157.11 L653.09,157.11 L653.09,184.57 L626.53,184.57 Z" style="stroke-width: 1; stroke: rgb(74, 74, 74); fill: rgb(74, 144, 226);"/></g><g class="composite-shape"><path class="real" d=" M566.32,15.32 L594.81,9.81 L755.34,181.34 L726.85,186.86 Z" style="stroke-width: 3; stroke: rgb(128, 128, 128); fill: rgba(245, 166, 35, 0.75);"/></g><g class="arrow-line"><path class="connection real" stroke-dasharray="" d="  M40.38,106.79 L87.9,155.72" style="stroke: rgba(128, 128, 128, 0.5); stroke-width: 1; fill: none;"/></g><g class="arrow-line"><path class="connection real" stroke-dasharray="" d="  M28.09,116.51 L54.48,191.58" style="stroke: rgba(128, 128, 128, 0.5); stroke-width: 1; fill: none;"/></g><g class="arrow-line"><path class="connection real" stroke-dasharray="" d="  M320.89,6.55 C281.91,-3.99 299.94,16.14 310.57,32.42" style="stroke: rgb(0, 0, 0); stroke-width: 1; fill: none;"/><g stroke="#000" transform="matrix(-0.534057264800589,-0.8454483058790251,0.8454483058790251,-0.534057264800589,311.53681379068223,33.918859165617164)" style="stroke: rgb(0, 0, 0); stroke-width: 1;"><path d=" M10.93,-4.9 Q4.96,-1 0,0 Q4.96,1 10.93,4.9"/></g></g><g class="arrow-line"><path class="connection real" stroke-dasharray="" d="  M150,231 L150,147.97" style="stroke: rgb(0, 0, 0); stroke-width: 2; fill: none;"/><g stroke="none" fill="#000" transform="matrix(3.061616997868383e-16,1,-1,3.061616997868383e-16,150,144.97113599361978)" style="stroke: none; fill: rgb(0, 0, 0); stroke-width: 2;"><path d=" M13.4,-6.43 L0,0 L13.4,6.44 L8.9,0 Z"/></g></g><g class="arrow-line"><path class="connection real" stroke-dasharray="" d="  M300,231 L299.2,160.52" style="stroke: rgb(0, 0, 0); stroke-width: 2; fill: none;"/><g stroke="none" fill="#000" transform="matrix(0.011344396795371909,0.9999356502602301,-0.9999356502602301,0.011344396795371909,299.16368098070404,157.52006950741804)" style="stroke: none; fill: rgb(0, 0, 0); stroke-width: 2;"><path d=" M13.4,-6.43 L0,0 L13.4,6.44 L8.9,0 Z"/></g></g><g class="arrow-line"><path class="connection real" stroke-dasharray="1.125 3.35" d="  M518.3,131.65 L639.81,170.84" style="stroke: rgb(0, 0, 0); stroke-width: 1; fill: none;"/></g><g class="arrow-line"><path class="connection real" stroke-dasharray="1.125 3.35" d="  M518.3,142.5 L641.3,171.46" style="stroke: rgb(0, 0, 0); stroke-width: 1; fill: none;"/></g><g class="arrow-line"><path class="connection real" stroke-dasharray="" d="  M440,231 L440,164" style="stroke: rgb(0, 0, 0); stroke-width: 2; fill: none;"/><g stroke="none" fill="#000" transform="matrix(3.061616997868383e-16,1,-1,3.061616997868383e-16,440,161)" style="stroke: none; fill: rgb(0, 0, 0); stroke-width: 2;"><path d=" M13.4,-6.43 L0,0 L13.4,6.44 L8.9,0 Z"/></g></g><g class="arrow-line"><path class="connection real" stroke-dasharray="" d="  M560,231 L560,164" style="stroke: rgb(0, 0, 0); stroke-width: 2; fill: none;"/><g stroke="none" fill="#000" transform="matrix(3.061616997868383e-16,1,-1,3.061616997868383e-16,560,161)" style="stroke: none; fill: rgb(0, 0, 0); stroke-width: 2;"><path d=" M13.4,-6.43 L0,0 L13.4,6.44 L8.9,0 Z"/></g></g><g class="arrow-line"><path class="connection real" stroke-dasharray="7.5 6" d="  M594.81,9.81 L752.07,60.84" style="stroke: rgb(0, 0, 0); stroke-width: 2; fill: none;"/></g><g class="arrow-line"><path class="connection real" stroke-dasharray="7.5 6" d="  M755.34,181.34 L752.07,60.84" style="stroke: rgb(0, 0, 0); stroke-width: 2; fill: none;"/></g><g class="composite-shape"><path class="real" d=" M746.7,60.84 C746.7,57.66 749.1,55.08 752.07,55.08 C755.04,55.08 757.45,57.66 757.45,60.84 C757.45,64.03 755.04,66.61 752.07,66.61 C749.1,66.61 746.7,64.03 746.7,60.84 Z" style="stroke-width: 1; stroke: rgb(128, 128, 128); fill: rgb(245, 166, 35);"/></g><g class="composite-shape"><path class="real" d=" M88.88,95.23 L112.78,95.23 L112.78,119.12 L88.88,119.12 Z" style="stroke-width: 3; stroke: none; fill: rgba(208, 2, 27, 0.75);"/></g><g class="composite-shape"><path class="real" d=" M211.7,92.8 L232.95,92.8 L232.95,113.7 L211.7,113.7 Z" style="stroke-width: 3; stroke: none; fill: rgba(208, 2, 27, 0.5);"/></g><g class="composite-shape"><path class="real" d=" M508.33,131.65 L518.3,131.65 L518.3,142.5 L508.33,142.5 Z" style="stroke-width: 3; stroke: none; fill: rgba(208, 2, 27, 0.5);"/></g><g class="arrow-line"><path class="connection real" stroke-dasharray="6 6" d="  M112.64,117.68 L203.97,135.69" style="stroke: rgb(0, 0, 0); stroke-width: 1; fill: none;"/></g><g class="composite-shape"><path class="real" d=" M383.25,107.19 L404.34,107.19 L404.34,127.26 L383.25,127.26 Z" style="stroke-width: 3; stroke: none; fill: rgba(208, 2, 27, 0.5);"/></g><g class="arrow-line"><path class="connection real" stroke-dasharray="7.5 6" d="  M522.81,13.8 L566.32,15.32" style="stroke: rgb(0, 0, 0); stroke-width: 2; fill: none;"/></g><g class="arrow-line"><path class="connection real" stroke-dasharray="7.5 6" d="  M653.09,184.57 L726.85,186.86" style="stroke: rgb(0, 0, 0); stroke-width: 2; fill: none;"/></g><g class="arrow-line"><path class="connection real" stroke-dasharray="" d="  M710,231 L710,194" style="stroke: rgb(0, 0, 0); stroke-width: 2; fill: none;"/><g stroke="none" fill="#000" transform="matrix(3.061616997868383e-16,1,-1,3.061616997868383e-16,710,191)" style="stroke: none; fill: rgb(0, 0, 0); stroke-width: 2;"><path d=" M13.4,-6.43 L0,0 L13.4,6.44 L8.9,0 Z"/></g></g><g class="arrow-line"><path class="connection real" stroke-dasharray="6 6" d="  M112.78,95.23 L203.97,135.69" style="stroke: rgb(0, 0, 0); stroke-width: 1; fill: none;"/></g><g class="intersections-group"><g style="stroke: rgb(0, 0, 0); stroke-width: 1; fill: none;"/></g></g><g/><g/><!-- react-empty: 27381 --></svg>
        <svg xmlns="http://www.w3.org/2000/svg" width="770" height="254" style="width:770px;height:254px;font-family:Asana-Math, Asana;background:transparent;"><g><g><text x="322.96875" y="0" style="white-space:pre;stroke:none;fill:rgb(0, 0, 0);font-size:18px;font-family:Arial, Helvetica, sans-serif;font-weight:400;dominant-baseline:text-before-edge;text-decoration:none solid rgb(0, 0, 0);">feature maps</text></g></g><g><g><text x="101.9609375" y="230" style="white-space:pre;stroke:none;fill:rgb(0, 0, 0);font-size:18px;font-family:Arial, Helvetica, sans-serif;font-weight:400;dominant-baseline:text-before-edge;text-decoration:none solid rgb(0, 0, 0);">convolutions</text></g></g><g><g><text x="251.96875" y="230" style="white-space:pre;stroke:none;fill:rgb(0, 0, 0);font-size:18px;font-family:Arial, Helvetica, sans-serif;font-weight:400;dominant-baseline:text-before-edge;text-decoration:none solid rgb(0, 0, 0);">subsampling</text></g></g><g><g><text x="397.9609375" y="230" style="white-space:pre;stroke:none;fill:rgb(0, 0, 0);font-size:18px;font-family:Arial, Helvetica, sans-serif;font-weight:400;dominant-baseline:text-before-edge;text-decoration:none solid rgb(0, 0, 0);">convolutions</text></g></g><g><g><text x="521.96875" y="230" style="white-space:pre;stroke:none;fill:rgb(0, 0, 0);font-size:18px;font-family:Arial, Helvetica, sans-serif;font-weight:400;dominant-baseline:text-before-edge;text-decoration:none solid rgb(0, 0, 0);">subsampling</text></g></g><g><g><text x="646.9609375" y="230" style="white-space:pre;stroke:none;fill:rgb(0, 0, 0);font-size:18px;font-family:Arial, Helvetica, sans-serif;font-weight:400;dominant-baseline:text-before-edge;text-decoration:none solid rgb(0, 0, 0);">fully-connected</text></g></g><g><g><text x="711.9765625" y="21.5" style="white-space:pre;stroke:none;fill:rgb(0, 0, 0);font-size:18px;font-family:Arial, Helvetica, sans-serif;font-weight:400;dominant-baseline:text-before-edge;text-decoration:none solid rgb(0, 0, 0);">output</text></g></g><g><g><text x="2.2265625" y="12" style="white-space:pre;stroke:none;fill:rgb(0, 0, 0);font-size:18px;font-family:Arial, Helvetica, sans-serif;font-weight:400;dominant-baseline:text-before-edge;text-decoration:none solid rgb(0, 0, 0);">input lattice: </text><g><g><g><g style="transform:matrix(1,0,0,1,103.2734375,28);"><path d="M9 1C24 -7 40 -11 52 -11C85 -11 124 18 155 65L231 182L242 113C255 28 278 -11 314 -11C336 -11 368 6 400 35L449 79L440 98C404 68 379 53 363 53C348 53 335 63 325 83C316 102 305 139 300 168L282 269L317 318C364 383 391 406 422 406C438 406 450 398 455 383L469 387L484 472C472 479 463 482 454 482C414 482 374 446 312 354L275 299L269 347C257 446 230 482 171 482C145 482 123 474 114 461L56 378L73 368C103 402 123 416 142 416C175 416 197 375 214 277L225 215L185 153C142 86 108 54 80 54C65 54 54 58 52 63L41 91L21 88C21 53 13 27 9 1Z" stroke="rgb(0, 0, 0)" stroke-width="8" fill="rgb(0, 0, 0)" style="transform:matrix(0.017,0,0,-0.017,0,0);"></path></g></g></g></g></g></g><g><g><g style="transform:matrix(1,0,0,1,13.8515625,215.7578125);"><path d="M622 285C624 428 505 474 382 473C398 548 407 624 432 699L432 705C418 700 404 693 389 684L354 473C184 474 30 367 27 185C24 37 142 -8 268 -16L229 -289C249 -282 267 -274 282 -261C283 -179 288 -98 299 -16C481 -3 618 87 622 285ZM539 273C537 130 451 11 301 6L377 449C487 447 541 380 539 273ZM349 449L270 5C155 14 106 73 108 187C111 336 196 444 349 449Z" stroke="rgb(0, 0, 0)" stroke-width="8" fill="rgb(0, 0, 0)" style="transform:matrix(0.017,0,0,-0.017,0,0);"></path></g><g><g><g><g style="transform:matrix(1,0,0,1,25.1484375,218.1421875);"><path d="M409 -15C458 -15 530 43 565 74L565 81C562 86 558 90 553 92C531 76 472 25 461 77C461 151 506 393 533 463L533 473C511 465 488 459 465 456L455 445C453 381 421 203 395 146C372 97 311 42 254 42C199 42 184 90 185 137C188 248 238 356 241 467C213 462 187 457 161 453C179 227 9 -91 53 -286C76 -285 109 -281 131 -273L131 -261C81 -173 121 -38 138 36L138 35C204 -77 344 37 395 104L395 101C387 65 354 -15 409 -15Z" stroke="rgb(0, 0, 0)" stroke-width="8" fill="rgb(0, 0, 0)" style="transform:matrix(0.0119,0,0,-0.0119,0,0);"></path></g></g></g></g><g style="transform:matrix(1,0,0,1,32.4140625,215.7578125);"><path d="M146 266C146 526 243 632 301 700L282 726C225 675 60 542 60 266C60 159 85 58 133 -32C168 -99 200 -138 282 -215L301 -194C255 -137 146 -15 146 266Z" stroke="rgb(0, 0, 0)" stroke-width="8" fill="rgb(0, 0, 0)" style="transform:matrix(0.017,0,0,-0.017,0,0);"></path></g><g style="transform:matrix(1,0,0,1,38.0703125,215.7578125);"><path d="M34 388L41 368L73 389C110 412 113 414 120 414C130 414 138 404 138 391C138 384 134 361 130 347L64 107C56 76 51 49 51 30C51 6 62 -9 81 -9C107 -9 143 12 241 85L231 103L205 86C176 67 153 56 144 56C137 56 131 66 131 76C131 86 133 95 138 116L215 420C219 437 221 448 221 456C221 473 212 482 196 482C174 482 137 461 62 408ZM228 712C199 712 170 679 170 645C170 620 185 604 209 604C240 604 264 633 264 671C264 695 249 712 228 712Z" stroke="rgb(0, 0, 0)" stroke-width="8" fill="rgb(0, 0, 0)" style="transform:matrix(0.017,0,0,-0.017,0,0);"></path></g><g style="transform:matrix(1,0,0,1,42.7734375,215.7578125);"><path d="M51 726L32 700C87 636 187 526 187 266C187 -10 83 -131 32 -194L51 -215C104 -165 273 -23 273 265C273 542 108 675 51 726Z" stroke="rgb(0, 0, 0)" stroke-width="8" fill="rgb(0, 0, 0)" style="transform:matrix(0.017,0,0,-0.017,0,0);"></path></g><g style="transform:matrix(1,0,0,1,48.4296875,215.7578125);"><path d="" stroke="rgb(0, 0, 0)" stroke-width="8" fill="rgb(0, 0, 0)" style="transform:matrix(0.017,0,0,-0.017,0,0);"></path></g><g style="transform:matrix(1,0,0,1,57.6484375,215.7578125);"><path d="M509 8L509 61L309 61C215 61 122 139 109 244L492 244L492 297L109 297C121 397 204 480 309 480L509 480L509 533L314 533C167 533 55 411 55 271C55 131 167 8 314 8Z" stroke="rgb(0, 0, 0)" stroke-width="8" fill="rgb(0, 0, 0)" style="transform:matrix(0.017,0,0,-0.017,0,0);"></path></g><g style="transform:matrix(1,0,0,1,72.2109375,215.7578125);"><path d="M88 -184L182 -183L282 -184L288 -178L288 -152L284 -147L246 -147C219 -147 197 -141 185 -131C176 -122 173 -108 173 -75L173 616C173 649 176 664 185 673C197 683 219 689 246 689L284 689L288 694L288 720L282 726L188 723L88 726C84 717 83 706 83 691C83 665 87 628 87 578L87 -44C87 -112 85 -140 79 -171Z" stroke="rgb(0, 0, 0)" stroke-width="8" fill="rgb(0, 0, 0)" style="transform:matrix(0.017,0,0,-0.017,0,0);"></path></g><g style="transform:matrix(1,0,0,1,77.8671875,215.7578125);"><path d="M555 243L555 299L51 299L51 243Z" stroke="rgb(0, 0, 0)" stroke-width="8" fill="rgb(0, 0, 0)" style="transform:matrix(0.017,0,0,-0.017,0,0);"></path></g><g style="transform:matrix(1,0,0,1,88.1484375,215.7578125);"><path d="M525 42C469 42 464 125 465 166C466 251 494 333 537 405L599 418C602 435 608 452 613 467C459 461 300 463 145 466C80 467 66 389 47 340C46 332 59 331 63 328L63 332C106 395 130 405 205 405L228 405C188 266 161 129 98 -2L98 -12C118 -6 153 1 170 13C211 141 240 274 268 405L495 405C438 318 397 213 395 108C395 59 410 -15 471 -15C512 -15 568 25 598 51L598 66L586 66L586 67C568 56 548 42 525 42Z" stroke="rgb(0, 0, 0)" stroke-width="8" fill="rgb(0, 0, 0)" style="transform:matrix(0.017,0,0,-0.017,0,0);"></path></g><g style="transform:matrix(1,0,0,1,99.2421875,215.7578125);"><path d="M204 123C177 114 159 108 106 93C99 17 74 -48 16 -144L30 -155L71 -136C152 -31 190 32 218 109Z" stroke="rgb(0, 0, 0)" stroke-width="8" fill="rgb(0, 0, 0)" style="transform:matrix(0.017,0,0,-0.017,0,0);"></path></g><g style="transform:matrix(1,0,0,1,106.4609375,215.7578125);"><path d="M774 42C718 42 713 125 714 166C715 251 743 333 786 405L848 418C851 435 857 452 862 467C708 461 549 463 394 466C329 467 315 389 296 340C295 332 308 331 312 328L312 332C355 395 379 405 454 405L477 405C437 266 410 129 347 -2L347 -12C367 -6 402 1 419 13C460 141 489 274 517 405L744 405C687 318 646 213 644 108C644 59 659 -15 720 -15C761 -15 817 25 847 51L847 66L835 66L835 67C817 56 797 42 774 42Z" stroke="rgb(0, 0, 0)" stroke-width="8" fill="rgb(0, 0, 0)" style="transform:matrix(0.017,0,0,-0.017,0,0);"></path></g><g style="transform:matrix(1,0,0,1,121.7890625,215.7578125);"><path d="M51 726L32 700C87 636 187 526 187 266C187 -10 83 -131 32 -194L51 -215C104 -165 273 -23 273 265C273 542 108 675 51 726Z" stroke="rgb(0, 0, 0)" stroke-width="8" fill="rgb(0, 0, 0)" style="transform:matrix(0.017,0,0,-0.017,0,0);"></path></g></g></g></svg>
</svg>
